<svg width="60" height="150" viewBox="0 0 60 150" fill="none" xmlns="http://www.w3.org/2000/svg">
<path d="M17.8125 79.9124C10.2437 79.8374 5.3625 76.2499 5.3625 70.7562C5.3625 65.2624 10.2438 61.6812 17.8 61.5999C25.3625 61.6812 30.25 65.2749 30.25 70.7562C30.25 76.2374 25.3625 79.8374 17.8125 79.9124ZM18.025 57.1749H17.5688C7.225 57.3437 0 62.9249 0 70.7499C0 78.5749 7.225 84.1687 17.5688 84.3375H18.025C28.3687 84.1687 35.5938 78.5812 35.5938 70.7499C35.5938 62.9187 28.3687 57.3437 18.025 57.1749ZM132.212 79.9124C124.65 79.8374 119.763 76.2437 119.763 70.7562C119.763 65.2687 124.65 61.6812 132.206 61.5999C139.769 61.6812 144.65 65.2749 144.65 70.7562C144.65 76.2374 139.769 79.8374 132.212 79.9124ZM132.431 57.1749H131.975C121.631 57.3437 114.406 62.9249 114.406 70.7562C114.406 78.5874 121.631 84.1749 131.969 84.3437H132.431C142.775 84.1749 150 78.5874 150 70.7499C150 62.9124 142.775 57.3437 132.431 57.1749ZM94.1437 79.9124C86.5812 79.8374 81.7063 76.2437 81.7063 70.7562C81.7063 65.2687 86.5812 61.6812 94.1437 61.5999C101.706 61.6812 106.588 65.2749 106.588 70.7562C106.588 76.2374 101.706 79.8374 94.15 79.9124H94.1437ZM94.3688 57.1749H93.9125C88.9812 57.2562 84.7625 58.5624 81.6937 60.7624V58.45H76.3375V92.8249H81.6937V80.7562C84.7562 82.9499 88.9812 84.2562 93.9062 84.3437H94.3688C104.713 84.1749 111.931 78.5874 111.931 70.7562C111.931 62.9249 104.713 57.3437 94.3688 57.1749ZM55.9688 79.9124C48.4062 79.8374 43.5312 76.2437 43.5312 70.7562C43.5312 65.2687 48.4062 61.6812 55.9688 61.5999C63.5312 61.6812 68.4125 65.2749 68.4125 70.7562C68.4125 76.2374 63.5313 79.8374 55.975 79.9124H55.9688ZM56.2 57.1749H55.75C50.8188 57.2562 46.6 58.5624 43.5312 60.7624V58.45H38.1813V92.8249H43.5312V80.7562C46.6 82.9499 50.8188 84.2562 55.75 84.3437C55.9021 84.3452 56.0542 84.3452 56.2062 84.3437C66.55 84.1749 73.775 78.5874 73.775 70.7562C73.775 62.9249 66.55 57.3437 56.2125 57.1749H56.2Z" fill="#576F75"/>
</svg>
