<svg width="150" height="150" viewBox="0 0 150 150" fill="none" xmlns="http://www.w3.org/2000/svg">
<path d="M127.625 45.9062V103.281H137.944V45.9062H127.625ZM0 46.7188V57.575H10.8562V46.7125L0 46.7188ZM61.125 48.9188V86.75C61.125 89.9563 61.4 92.6562 61.9375 94.825C62.4813 96.95 63.4063 98.6875 64.6875 100C65.9563 101.313 67.6562 102.244 69.7063 102.819C71.7937 103.4 74.4187 103.669 77.55 103.669H78.9V94.0875C77.4 94.0875 76.1188 94.0125 75.1937 93.8563C74.2854 93.7702 73.4297 93.3906 72.7562 92.775C72.1637 92.1184 71.7864 91.2961 71.675 90.4188C71.5021 89.1639 71.4248 87.8978 71.4437 86.6313V72.9938H78.9V64.1437H71.4437V48.9188H61.125ZM39.2188 63.3688C36.7438 63.3688 34.4688 63.8688 32.4562 64.875C30.4125 65.8813 28.7062 67.275 27.3187 69.05L26.775 69.7813V64.1437H16.6125V103.244H26.8562V83.1563C26.9688 79.4813 27.8563 76.7812 29.5625 75.0375C31.375 73.1812 33.575 72.2563 36.0875 72.2563C39.0625 72.2563 41.3438 73.1875 42.85 74.9625C44.3187 76.7375 45.0938 79.25 45.0938 82.4625V103.238H55.4875V81.0625C55.525 75.5 54.0563 71.0938 51.2 68C48.3375 64.9063 44.325 63.3625 39.2188 63.3625V63.3688ZM102.125 63.4063C99.4519 63.3956 96.8029 63.9123 94.3298 64.9269C91.8567 65.9414 89.608 67.4339 87.7125 69.3187C85.9 71.1312 84.4313 73.3 83.3875 75.775C82.3108 78.2878 81.7701 80.9976 81.8 83.7313C81.8 86.5563 82.3 89.2188 83.3063 91.6937C84.3125 94.1625 85.7438 96.3312 87.5188 98.1437C89.2938 99.9562 91.5 101.431 94.05 102.475C96.6 103.556 99.425 104.1 102.438 104.1C111.169 104.1 116.575 100.119 119.825 96.4125L112.406 90.7625C110.856 92.6188 107.15 95.1312 102.513 95.1312C99.6125 95.1312 97.2188 94.475 95.4 93.125C93.5798 91.7835 92.2723 89.8608 91.6937 87.675L91.575 87.325H122.294V83.6563C122.294 80.8375 121.794 78.2063 120.825 75.7375C119.852 73.3523 118.452 71.1645 116.694 69.2813C114.889 67.4157 112.719 65.9432 110.319 64.9562C107.719 63.8946 104.933 63.3674 102.125 63.4063ZM0.26875 64.1437V103.244H10.5875V64.1437H0.26875ZM102.006 72.1812C109.081 72.1812 112.406 77.1625 112.406 80.025L91.6562 80.0625C91.6562 77.2 94.9375 72.2188 102.006 72.1812ZM146.212 96.0187C145.208 96.0187 144.245 96.4178 143.534 97.1281C142.824 97.8384 142.425 98.8017 142.425 99.8063C142.425 100.811 142.824 101.774 143.534 102.484C144.245 103.195 145.208 103.594 146.212 103.594C147.217 103.594 148.18 103.195 148.891 102.484C149.601 101.774 150 100.811 150 99.8063C150 98.8017 149.601 97.8384 148.891 97.1281C148.18 96.4178 147.217 96.0187 146.212 96.0187ZM146.162 96.675C146.167 96.675 146.171 96.675 146.175 96.675C146.586 96.675 146.993 96.756 147.372 96.9135C147.752 97.0709 148.097 97.3017 148.387 97.5925C148.677 97.8833 148.907 98.2286 149.064 98.6085C149.221 98.9883 149.301 99.3953 149.3 99.8063C149.3 100.217 149.219 100.623 149.062 101.002C148.905 101.381 148.675 101.726 148.385 102.016C148.095 102.306 147.75 102.536 147.371 102.693C146.992 102.85 146.585 102.931 146.175 102.931C145.346 102.931 144.551 102.602 143.965 102.016C143.379 101.43 143.05 100.635 143.05 99.8063C143.05 98.9796 143.378 98.1866 143.961 97.601C144.544 97.0153 145.336 96.6783 146.162 96.675ZM144.706 97.6437V102.013H145.519V100.231H146.1L147.181 102.013H148.031L146.906 100.156C147.186 100.13 147.447 100.006 147.644 99.8063C147.831 99.6188 147.956 99.3438 147.956 98.9563C147.956 98.5313 147.831 98.225 147.562 97.9937C147.331 97.7562 146.906 97.6437 146.406 97.6437H144.706ZM145.519 98.2625H146.481C146.6 98.2625 146.712 98.3 146.831 98.3375C146.931 98.3694 147.014 98.439 147.062 98.5312C147.144 98.6125 147.137 98.725 147.137 98.8812C147.139 99.0001 147.114 99.1177 147.062 99.225C146.995 99.3006 146.917 99.3659 146.831 99.4188C146.712 99.4563 146.6 99.5 146.481 99.5H145.519V98.2625Z" fill="#576F75"/>
</svg>
