<svg width="150" height="150" viewBox="0 0 150 150" fill="none" xmlns="http://www.w3.org/2000/svg">
<path d="M32.1562 70.6937H42.375C43.4792 70.687 44.5413 71.1167 45.3302 71.8892C46.1192 72.6617 46.571 73.7146 46.5875 74.8187V84.2499H31.3062C30.6321 84.2533 29.9841 83.9895 29.5038 83.5163C29.0236 83.0432 28.7504 82.3991 28.7437 81.725V78.45C28.752 77.8222 29.0084 77.2233 29.457 76.7841C29.9055 76.3449 30.5097 76.1012 31.1375 76.1062H39.6L38.7 78.0187H32.4625C32.1937 78.0187 31.8875 78.2312 31.8875 78.525V81.0999C31.8875 81.3937 32.1937 81.6124 32.4625 81.6124H43.275V75.4249C43.275 74.2312 42.2188 73.3124 41.0438 73.3124H30.9063L32.1562 70.6937ZM116.075 65.775V84.2687H101.181C100.508 84.272 99.8611 84.0091 99.381 83.5373C98.901 83.0655 98.627 82.423 98.6188 81.75V74.8125C98.6368 73.7084 99.0903 72.6562 99.8804 71.8848C100.671 71.1134 101.733 70.6853 102.838 70.6937H111.319L110.069 73.3312H104.144C102.969 73.3312 101.912 74.2499 101.912 75.4374V81.1249C101.912 81.4124 102.219 81.625 102.488 81.625H112.762V65.775H116.075ZM63.75 84.2687H67.0438V74.8312C67.0257 73.7282 66.5731 72.6769 65.7843 71.9057C64.9956 71.1345 63.9344 70.7057 62.8313 70.7125H55.825L54.575 73.35H61.5188C62.6938 73.35 63.75 74.2687 63.75 75.4562V84.2687ZM50.0312 65.7687V84.2687H53.325V65.7687H50.0312ZM22.5312 84.2687H25.825V74.8312C25.8069 73.7282 25.3543 72.6769 24.5656 71.9057C23.7768 71.1345 22.7156 70.7057 21.6125 70.7125H0V84.2687H3.2875V73.8375C3.2875 73.5437 3.6 73.3312 3.86875 73.3312H10.6812C10.95 73.3312 11.2563 73.5437 11.2563 73.8375V84.2687H14.55V73.8375C14.55 73.5437 14.8563 73.3312 15.125 73.3312H20.3C21.475 73.3312 22.5312 74.2499 22.5312 75.4374V84.2687ZM133.281 70.6937H125C123.896 70.687 122.834 71.1167 122.045 71.8892C121.256 72.6617 120.804 73.7146 120.787 74.8187V84.2499H124.081V75.4374C124.081 74.2499 125.137 73.3312 126.312 73.3312H132.025L133.281 70.6937ZM91.075 70.6937C92.1802 70.6853 93.244 71.1143 94.0343 71.887C94.8246 72.6597 95.2773 73.7135 95.2937 74.8187V84.2499H92V75.4374C92 74.2499 90.9375 73.3312 89.7688 73.3312H81.8438V84.2687H78.55V70.7125C82.7062 70.7125 86.8812 70.6937 91.075 70.6937ZM71.1375 71.5499L74.4313 69.6375V84.2499H71.1438L71.1375 71.5499ZM74.45 67.7437V65.7312H71.1625V69.6375L74.45 67.7437ZM135.587 70.6937H145.788C146.892 70.687 147.954 71.1167 148.743 71.8892C149.532 72.6617 149.984 73.7146 150 74.8187V84.2499H134.719C134.045 84.2533 133.397 83.9895 132.916 83.5163C132.436 83.0432 132.163 82.3991 132.156 81.725V78.45C132.164 77.8222 132.421 77.2233 132.869 76.7841C133.318 76.3449 133.922 76.1012 134.55 76.1062H143.012L142.113 78.0187H135.875C135.606 78.0187 135.3 78.2312 135.3 78.525V81.0999C135.3 81.3937 135.606 81.6124 135.875 81.6124H146.688V75.4249C146.688 74.2312 145.631 73.3124 144.456 73.3124H134.319L135.587 70.6937Z" fill="#576F75"/>
</svg>
