<svg width="150" height="150" viewBox="0 0 150 150" fill="none" xmlns="http://www.w3.org/2000/svg">
<path d="M0 85L2.78125 80.7625H18.8937C19.8062 80.7625 20.4062 80.2 20.4062 79.325V76.875H6.55C2.425 76.875 0.59375 75.1375 0.59375 71.2812V69.6188C0.59375 66.7438 2.38125 65.0063 5.2 65.0063H5.5125V71.2062C5.5125 72.0812 6.1125 72.6438 7.025 72.6438H20.4437C23.5063 72.6438 25.325 74.3812 25.325 77.2187V79.4062C25.325 83.1562 23.3875 85.0062 19.375 85.0062L0 85ZM96.5813 80.6875H109.044C111.106 80.6875 112.419 79.4812 112.419 77.5875V72.4125C112.419 70.5188 111.106 69.3125 109.044 69.3125H96.5813V80.6875ZM91.5813 85V65H109.169C114.406 65 117.419 67.875 117.419 72.6375V77.3625C117.419 82.125 114.406 85 109.169 85H91.5813ZM67.3375 80.6875H77.8625C79.7625 80.6875 80.9937 79.5562 80.9937 77.7812V72.2188C80.9937 70.4438 79.7625 69.3125 77.8625 69.3125H67.3375C65.4375 69.3125 64.2062 70.4438 64.2062 72.2188V77.7812C64.2062 79.5562 65.4375 80.6875 67.3375 80.6875ZM77.9813 85H67.2188C62.1375 85 59.2 82.2 59.2 77.55V72.45C59.2 67.8 62.1375 65 67.2188 65H77.9813C83.0625 65 86 67.8 86 72.45V77.55C86 82.2 83.0625 85 77.9813 85ZM119.475 85L131.263 65H138.213L150 85H144.281L142.256 81.5625H132.212L129.519 77.475L125.069 85H119.475ZM129.637 77.25H139.719L134.675 68.7437L129.637 77.25ZM10.4375 69.1562L7.58125 65H24.85L22.0687 69.1562H10.4375ZM30.8313 85V65H35.8312V72.7875H42.4625L51.075 65H57.7062L46.75 74.9375L57.9063 85H50.875L42.2563 77.1H35.8312V85H30.8313Z" fill="#576F75"/>
</svg>
