<svg width="641" height="153" viewBox="0 0 641 153" fill="none" xmlns="http://www.w3.org/2000/svg">
<path d="M76.5177 97.2052C44.2011 96.885 23.3594 81.5673 23.3594 58.1104C23.3594 34.6535 44.2011 19.3624 76.4643 19.0155C108.754 19.3624 129.623 34.7068 129.623 58.1104C129.623 81.5139 108.754 96.885 76.5177 97.2052ZM77.425 0.121886H75.477C31.3118 0.842405 0.462891 24.6729 0.462891 58.0837C0.462891 91.4944 31.3118 115.378 75.477 116.099H77.425C121.59 115.378 152.439 91.5211 152.439 58.0837C152.439 24.6462 121.59 0.842405 77.425 0.121886ZM564.977 97.2052C532.687 96.885 511.818 81.5406 511.818 58.1104C511.818 34.6801 532.687 19.3624 564.95 19.0155C597.24 19.3624 618.081 34.7068 618.081 58.1104C618.081 81.5139 597.24 96.885 564.977 97.2052ZM565.91 0.121886H563.962C519.797 0.842405 488.948 24.6729 488.948 58.1104C488.948 91.5478 519.797 115.405 563.936 116.125H565.91C610.076 115.405 640.925 91.5478 640.925 58.0837C640.925 24.6195 610.076 0.842405 565.91 0.121886ZM402.433 97.2052C370.143 96.885 349.328 81.5406 349.328 58.1104C349.328 34.6801 370.143 19.3624 402.433 19.0155C434.723 19.3624 455.564 34.7068 455.564 58.1104C455.564 81.5139 434.723 96.885 402.459 97.2052H402.433ZM403.393 0.121886H401.445C380.39 0.468803 362.377 6.04617 349.274 15.4396V5.56582H326.405V152.338H349.274V100.808C362.35 110.175 380.39 115.752 401.419 116.125H403.393C447.559 115.405 478.381 91.5478 478.381 58.1104C478.381 24.6729 447.559 0.842405 403.393 0.121886ZM239.435 97.2052C207.145 96.885 186.33 81.5406 186.33 58.1104C186.33 34.6801 207.145 19.3624 239.435 19.0155C271.725 19.3624 292.567 34.7068 292.567 58.1104C292.567 81.5139 271.725 96.885 239.462 97.2052H239.435ZM240.423 0.121886H238.501C217.446 0.468803 199.433 6.04617 186.33 15.4396V5.56582H163.487V152.338H186.33V100.808C199.433 110.175 217.446 115.752 238.501 116.125C239.15 116.132 239.8 116.132 240.449 116.125C284.614 115.405 315.463 91.5478 315.463 58.1104C315.463 24.6729 284.614 0.842405 240.476 0.121886H240.423Z" fill="#576F75"/>
</svg>
