<svg width="150" height="150" viewBox="0 0 150 150" fill="none" xmlns="http://www.w3.org/2000/svg">
<path d="M103.688 58.425V91.575H108.662V58.425H103.688ZM50.5813 57.8625C40.8938 57.8625 33.3813 64.9062 33.3813 75C33.3813 85.5437 40.8938 92.1375 50.5813 92.1375C60.2688 92.1375 67.7937 85.5437 67.775 75C67.7934 72.7396 67.3609 70.4982 66.5026 68.4069C65.6444 66.3157 64.3777 64.4167 62.7767 62.8209C61.1756 61.2251 59.2724 59.9646 57.1784 59.1132C55.0844 58.2619 52.8416 57.8366 50.5813 57.8625ZM62.8125 75C62.8125 82.4687 57.3375 87.4187 50.5813 87.4187C43.8188 87.4187 38.3438 82.4687 38.3438 75C38.3438 67.6625 43.8188 62.5812 50.5813 62.5812C57.3313 62.5812 62.8125 67.6625 62.8125 75ZM0 57.35V91.575H5.075V68.9562L31.4375 92.6437V85.55L0 57.35ZM71.5125 75L89.9625 91.575H97.3625L78.8875 75L97.3625 58.425H89.9625L71.5125 75ZM150 91.575H144.531L140.531 84.2312H122.419L118.419 91.575H112.95L119.575 79.3375H137.931L128.775 62.3375L131.475 57.35L150 91.575Z" fill="#576F75"/>
</svg>
