<svg width="150" height="150" viewBox="0 0 150 150" fill="none" xmlns="http://www.w3.org/2000/svg">
<path d="M79.8446 41.5943C80.0872 41.5784 80.3303 41.6161 80.5565 41.7048C80.7826 41.7935 80.9861 41.9309 81.1524 42.1072C81.3187 42.2834 81.4436 42.4941 81.518 42.724C81.5925 42.954 81.6147 43.1975 81.5831 43.437L81.5997 44.9551C81.6052 48.217 81.5886 51.4733 81.6108 54.7297C81.6329 57.1169 82.0537 57.5735 84.3791 57.865C90.1815 58.3952 96.0242 58.3104 101.809 57.612C104.806 57.4053 107.748 56.7103 110.518 55.5547C111.2 55.3463 111.777 54.8872 112.131 54.271C112.485 53.6548 112.589 52.9277 112.422 52.2379C111.321 44.6238 107.893 37.529 102.603 31.9122C97.3122 26.2953 90.414 22.4269 82.8399 20.8295C76.1153 19.3772 69.1147 19.8386 62.6421 22.1607C56.9586 24.1269 51.8402 27.4338 47.7263 31.7977C41.3932 38.0554 37.7307 46.4968 37.5 55.3677C37.6199 66.0401 40.5315 76.4979 45.949 85.7145C46.6106 87.0621 47.6695 88.1777 48.985 88.9127C50.3004 89.6477 51.81 89.9673 53.3128 89.8289C56.9282 89.7409 60.5492 89.8069 64.1647 89.8069V89.7904H75.7031C77.0873 89.7904 78.178 90.1205 78.1669 91.8366C78.1393 95.8301 78.1669 99.8125 78.1503 103.806C78.1393 105.016 77.796 106.182 76.3454 106.193C74.8837 106.204 74.5349 105.044 74.5183 103.828C74.4906 101.919 74.5183 100.011 74.5183 98.1018C74.5183 95.6211 74.1141 95.038 71.6226 94.5814C67.3203 93.8849 62.936 93.8478 58.6224 94.4714C57.0977 94.5943 55.6024 94.9583 54.1931 95.5495C53.0193 96.0996 52.5542 96.8972 53.1245 98.1183C53.7169 99.389 54.2651 100.687 54.9682 101.903C60.6549 111.411 66.9927 120.519 73.9369 129.164C74.7896 130.258 75.4484 130.28 76.3232 129.219C78.2555 126.875 80.282 124.604 82.1921 122.244C89.6834 113.231 96.3136 103.545 101.997 93.3108C105.791 86.6549 108.578 79.4804 110.269 72.018C110.644 71.0623 110.79 70.033 110.696 69.0115C110.602 67.99 110.27 67.0042 109.726 66.132C109.183 65.2598 108.443 64.525 107.565 63.9857C106.686 63.4464 105.694 63.1174 104.666 63.0246C101.631 62.3573 98.5263 62.0581 95.4192 62.1335C90.3864 62.1005 85.3535 62.117 80.3207 62.1225C78.9642 62.1225 77.9565 61.7374 77.9565 60.1532C77.9565 54.5977 77.9455 49.0311 77.9676 43.47C77.9676 42.2818 78.5434 41.5447 79.8446 41.5943Z" fill="#576F75"/>
</svg>
