<svg width="150" height="150" viewBox="0 0 150 150" fill="none" xmlns="http://www.w3.org/2000/svg">
<path d="M87.0188 88.5937C87.0188 88.8812 87.1125 89.0437 87.275 89.0437C87.4068 89.0259 87.5317 88.9742 87.6375 88.8937L134.388 58.5562C135.177 58.0031 136.124 57.7183 137.087 57.7437H147.362C148.938 57.7437 150 58.7937 150 60.3687V79.9875C150 82.3625 149.475 83.7375 147.375 84.9937L134.913 92.4937C134.789 92.5797 134.644 92.6315 134.494 92.6437C134.344 92.6437 134.194 92.525 134.194 92.0937V69.2C134.194 68.9312 134.119 68.7562 133.938 68.7562C133.805 68.771 133.679 68.823 133.575 68.9062L99.4125 91.1C98.6391 91.6264 97.723 91.9034 96.7875 91.8937H74.1375C72.55 91.8937 71.5 90.8437 71.5 89.2562V60.9812C71.5 60.775 71.4062 60.5812 71.225 60.5812C71.095 60.5987 70.9721 60.6504 70.8688 60.7312L48.325 74.25C48.1 74.4 48.0375 74.5062 48.0375 74.6125C48.0375 74.7 48.0875 74.7937 48.2375 74.9562L64.3438 91.05C64.5563 91.2625 64.7062 91.425 64.7062 91.6062C64.7062 91.7562 64.4625 91.875 64.1813 91.875H49.625C48.4813 91.875 47.6 91.7125 46.9813 91.0937L37.2188 81.3437C37.1818 81.2994 37.1361 81.2632 37.0844 81.2374C37.0328 81.2116 36.9764 81.1967 36.9188 81.1937C36.8125 81.1997 36.7095 81.2319 36.6188 81.2875L20.3062 91.1C19.5262 91.6239 18.6017 91.8906 17.6625 91.8625H2.65625C1.05 91.875 0 90.8125 0 89.2437V69.9937C0 67.6187 0.525 66.2437 2.6375 64.9937L15.1875 57.45C15.2849 57.3881 15.3972 57.3536 15.5125 57.35C15.7125 57.35 15.8125 57.5375 15.8125 57.975V83.75C15.8125 84.0187 15.875 84.1437 16.0688 84.1437C16.2035 84.1228 16.3317 84.0715 16.4438 83.9937L58.7937 58.5C59.6148 57.9473 60.5928 57.6754 61.5812 57.725H84.3813C85.9563 57.725 87.0188 58.775 87.0188 60.35L87.0062 88.5875L87.0188 88.5937Z" fill="#576F75"/>
</svg>
