<svg width="54" height="54" viewBox="0 0 54 54" fill="none" xmlns="http://www.w3.org/2000/svg">
<path d="M0.00012207 27C0.00012207 41.9117 12.0884 54 27.0001 54C41.9118 54 54.0001 41.9117 54.0001 27C54.0001 12.0883 41.9118 0 27.0001 0C12.0884 0 0.00012207 12.0883 0.00012207 27ZM51.3001 27C51.3001 40.4205 40.4206 51.3 27.0001 51.3C13.5796 51.3 2.70012 40.4205 2.70012 27C2.70012 13.5795 13.5796 2.7 27.0001 2.7C40.4206 2.7 51.3001 13.5795 51.3001 27Z" fill="white" fill-opacity="0.3"/>
<path d="M29.7001 33.75L22.9501 27L29.7001 20.25" stroke="white" stroke-opacity="0.3" stroke-width="2" stroke-linecap="round" stroke-linejoin="round"/>
</svg>
