<svg width="61" height="61" viewBox="0 0 61 61" fill="none" xmlns="http://www.w3.org/2000/svg">
<path d="M16.3748 27.7125L16.1048 25.5C15.3165 25.3233 14.5757 25.0483 13.8823 24.675C13.189 24.3016 12.564 23.82 12.0073 23.23L9.87484 24.1625L8.52984 22.03L10.3948 20.49C10.1182 19.6916 9.97984 18.8616 9.97984 18C9.97984 17.1383 10.1182 16.3083 10.3948 15.51L8.52734 13.9725L9.87484 11.8375L12.0098 12.77C12.5632 12.18 13.1873 11.6983 13.8823 11.325C14.5757 10.9516 15.3173 10.6766 16.1073 10.5L16.3748 8.28748H18.8748L19.1448 10.5C19.9332 10.6766 20.674 10.9516 21.3673 11.325C22.0607 11.6983 22.6857 12.18 23.2423 12.77L25.3748 11.8375L26.7223 13.9725L24.8548 15.51C25.1315 16.3083 25.2698 17.1383 25.2698 18C25.2698 18.8616 25.1315 19.6916 24.8548 20.49L26.7223 22.0275L25.3748 24.1625L23.2398 23.23C22.6865 23.82 22.0623 24.3016 21.3673 24.675C20.674 25.0483 19.9323 25.3233 19.1423 25.5L18.8748 27.7125H16.3748ZM17.6248 23.385C19.1282 23.385 20.4015 22.8633 21.4448 21.82C22.4882 20.7766 23.0098 19.5033 23.0098 18C23.0098 16.4966 22.4882 15.2233 21.4448 14.18C20.4015 13.1366 19.1282 12.615 17.6248 12.615C16.1215 12.615 14.8482 13.1366 13.8048 14.18C12.7615 15.2233 12.2398 16.4966 12.2398 18C12.2398 19.5033 12.7615 20.7766 13.8048 21.82C14.8482 22.8633 16.1215 23.385 17.6248 23.385ZM39.5198 53.0475L39.0673 50.395C37.9423 50.2733 36.8932 49.9308 35.9198 49.3675C34.9465 48.8041 34.1207 48.07 33.4423 47.165L30.9923 48.115L29.4623 45.5775L31.5373 43.9025C31.0707 42.8008 30.8373 41.6666 30.8373 40.5C30.8373 39.3333 31.0707 38.1983 31.5373 37.095L29.4623 35.4225L30.9898 32.885L33.4423 33.835C34.1223 32.93 34.9482 32.1958 35.9198 31.6325C36.8915 31.0691 37.9407 30.7275 39.0673 30.6075L39.5173 27.9525H42.4798L42.9323 30.605C44.0573 30.7283 45.1065 31.0708 46.0798 31.6325C47.0532 32.1941 47.879 32.9291 48.5573 33.8375L51.0073 32.885L52.5398 35.4225L50.4623 37.0975C50.929 38.1991 51.1623 39.3333 51.1623 40.5C51.1623 41.6666 50.929 42.8016 50.4623 43.905L52.5373 45.5775L51.0098 48.115L48.5573 47.165C47.879 48.0716 47.0532 48.8058 46.0798 49.3675C45.1065 49.9291 44.0573 50.2708 42.9323 50.3925L42.4823 53.0475H39.5198ZM40.9998 48C43.0832 48 44.854 47.2708 46.3123 45.8125C47.7707 44.3541 48.4998 42.5833 48.4998 40.5C48.4998 38.4166 47.7707 36.6458 46.3123 35.1875C44.854 33.7291 43.0832 33 40.9998 33C38.9165 33 37.1457 33.7291 35.6873 35.1875C34.229 36.6458 33.4998 38.4166 33.4998 40.5C33.4998 42.5833 34.229 44.3541 35.6873 45.8125C37.1457 47.2708 38.9165 48 40.9998 48Z" fill="white"/>
</svg>
