<svg width="61" height="61" viewBox="0 0 61 61" fill="none" xmlns="http://www.w3.org/2000/svg">
<g clip-path="url(#clip0_1390_2265)">
<path d="M30.5 0.5C33.2539 0.5 35.9102 0.851562 38.4688 1.55469C41.0273 2.25781 43.4199 3.26367 45.6465 4.57227C47.873 5.88086 49.8945 7.44336 51.7109 9.25977C53.5273 11.0762 55.0898 13.1074 56.3984 15.3535C57.707 17.5996 58.7129 19.9922 59.416 22.5312C60.1191 25.0703 60.4805 27.7266 60.5 30.5C60.5 33.2539 60.1484 35.9102 59.4453 38.4688C58.7422 41.0273 57.7363 43.4199 56.4277 45.6465C55.1191 47.873 53.5566 49.8945 51.7402 51.7109C49.9238 53.5273 47.8926 55.0898 45.6465 56.3984C43.4004 57.707 41.0078 58.7129 38.4688 59.416C35.9297 60.1191 33.2734 60.4805 30.5 60.5C27.7461 60.5 25.0898 60.1484 22.5312 59.4453C19.9727 58.7422 17.5801 57.7363 15.3535 56.4277C13.127 55.1191 11.1055 53.5566 9.28906 51.7402C7.47266 49.9238 5.91016 47.8926 4.60156 45.6465C3.29297 43.4004 2.28711 41.0176 1.58398 38.498C0.880859 35.9785 0.519531 33.3125 0.5 30.5C0.5 27.7461 0.851562 25.0898 1.55469 22.5312C2.25781 19.9727 3.26367 17.5801 4.57227 15.3535C5.88086 13.127 7.44336 11.1055 9.25977 9.28906C11.0762 7.47266 13.1074 5.91016 15.3535 4.60156C17.5996 3.29297 19.9824 2.28711 22.502 1.58398C25.0215 0.880859 27.6875 0.519531 30.5 0.5ZM30.5 56.75C32.9023 56.75 35.2168 56.4375 37.4434 55.8125C39.6699 55.1875 41.7598 54.3086 43.7129 53.1758C45.666 52.043 47.4434 50.666 49.0449 49.0449C50.6465 47.4238 52.0137 45.6562 53.1465 43.7422C54.2793 41.8281 55.168 39.7383 55.8125 37.4727C56.457 35.207 56.7695 32.8828 56.75 30.5C56.75 28.0977 56.4375 25.7832 55.8125 23.5566C55.1875 21.3301 54.3086 19.2402 53.1758 17.2871C52.043 15.334 50.666 13.5566 49.0449 11.9551C47.4238 10.3535 45.6562 8.98633 43.7422 7.85352C41.8281 6.7207 39.7383 5.83203 37.4727 5.1875C35.207 4.54297 32.8828 4.23047 30.5 4.25C28.0977 4.25 25.7832 4.5625 23.5566 5.1875C21.3301 5.8125 19.2402 6.69141 17.2871 7.82422C15.334 8.95703 13.5566 10.334 11.9551 11.9551C10.3535 13.5762 8.98633 15.3438 7.85352 17.2578C6.7207 19.1719 5.83203 21.2617 5.1875 23.5273C4.54297 25.793 4.23047 28.1172 4.25 30.5C4.25 32.9023 4.5625 35.2168 5.1875 37.4434C5.8125 39.6699 6.69141 41.7598 7.82422 43.7129C8.95703 45.666 10.334 47.4434 11.9551 49.0449C13.5762 50.6465 15.3438 52.0137 17.2578 53.1465C19.1719 54.2793 21.2617 55.168 23.5273 55.8125C25.793 56.457 28.1172 56.7695 30.5 56.75ZM47.9902 30.9688L49.3965 26.75H51.5938L49.1035 34.25H46.9062L45.5 30.0312L44.0938 34.25H41.8965L39.4062 26.75H41.6035L43.0098 30.9688L44.416 26.75H46.584L47.9902 30.9688ZM34.3965 26.75H36.5938L34.1035 34.25H31.9062L30.5 30.0312L29.0938 34.25H26.8965L24.4062 26.75H26.6035L28.0098 30.9688L29.416 26.75H31.584L32.9902 30.9688L34.3965 26.75ZM19.3965 26.75H21.5938L19.1035 34.25H16.9062L15.5 30.0312L14.0938 34.25H11.8965L9.40625 26.75H11.6035L13.0098 30.9688L14.416 26.75H16.584L17.9902 30.9688L19.3965 26.75Z" fill="white"/>
</g>
<defs>
<clipPath id="clip0_1390_2265">
<rect width="60" height="60" fill="white" transform="translate(0.5 0.5)"/>
</clipPath>
</defs>
</svg>
