<svg width="61" height="61" viewBox="0 0 61 61" fill="none" xmlns="http://www.w3.org/2000/svg">
<path d="M50.4899 27.0525V48C50.4899 49.3261 49.9631 50.5979 49.0254 51.5355C48.0877 52.4732 46.8159 53 45.4899 53H15.5099C14.1842 52.9993 12.9131 52.4723 11.9759 51.5347C11.0388 50.597 10.5124 49.3256 10.5124 48V27.0525M19.2549 22.375L20.5049 8M19.2549 22.375C19.2549 29.63 30.4999 29.63 30.4999 22.375M19.2549 22.375C19.2549 30.315 6.36735 28.675 8.17235 21.755L10.7849 11.7375C11.0641 10.6676 11.6901 9.72038 12.5649 9.04411C13.4398 8.36785 14.5141 8.00066 15.6199 8H45.3799C46.4856 8.00066 47.56 8.36785 48.4348 9.04411C49.3097 9.72038 49.9356 10.6676 50.2149 11.7375L52.8274 21.755C54.6324 28.6775 41.7449 30.315 41.7449 22.375M30.4999 22.375V8M30.4999 22.375C30.4999 29.63 41.7449 29.63 41.7449 22.375M41.7449 22.375L40.4949 8" stroke="white" stroke-width="1.5" stroke-linecap="round" stroke-linejoin="round"/>
</svg>
