<svg width="61" height="61" viewBox="0 0 61 61" fill="none" xmlns="http://www.w3.org/2000/svg">
<rect x="0.5" y="0.5" width="60" height="60" rx="10" fill="white"/>
<path d="M30.5002 29.6666C29.3951 29.6666 28.3353 29.2277 27.5539 28.4463C26.7725 27.6649 26.3335 26.605 26.3335 25.5C26.3335 24.3949 26.7725 23.3351 27.5539 22.5537C28.3353 21.7723 29.3951 21.3333 30.5002 21.3333C31.6052 21.3333 32.665 21.7723 33.4464 22.5537C34.2278 23.3351 34.6668 24.3949 34.6668 25.5C34.6668 26.0472 34.5591 26.589 34.3497 27.0945C34.1403 27.6 33.8334 28.0593 33.4464 28.4463C33.0595 28.8332 32.6002 29.1401 32.0947 29.3495C31.5892 29.5589 31.0473 29.6666 30.5002 29.6666ZM30.5002 13.8333C27.406 13.8333 24.4385 15.0625 22.2506 17.2504C20.0627 19.4383 18.8335 22.4058 18.8335 25.5C18.8335 34.25 30.5002 47.1666 30.5002 47.1666C30.5002 47.1666 42.1668 34.25 42.1668 25.5C42.1668 22.4058 40.9377 19.4383 38.7497 17.2504C36.5618 15.0625 33.5944 13.8333 30.5002 13.8333Z" fill="#5841D4"/>
</svg>
