<svg width="232" height="292" viewBox="0 0 232 292" fill="none" xmlns="http://www.w3.org/2000/svg">
<g clip-path="url(#clip0_147_300)">
<path d="M23.9806 3.47221C14.7351 8.10246 7.94539 14.9032 3.61154 24.1637L0 31.6878V116.479V201.271L3.61154 209.085C7.94539 218.056 16.3242 226.303 25.5697 230.21C31.6371 232.815 36.2599 232.959 115.425 232.959C210.336 232.959 207.736 233.249 219.148 221.673C222.615 218.056 227.094 211.978 228.683 208.361C231.861 201.85 231.861 200.982 231.861 116.479V31.1091L228.538 24.1637C224.349 15.3372 215.392 6.36612 207.158 2.74873C200.946 0.144211 196.468 -0.000473022 115.858 -0.000473022L31.0592 0.144211L23.9806 3.47221ZM113.98 58.8906C111.958 61.2057 103.868 70.3215 96.2114 79.2927C83.6433 94.0516 82.3431 95.9326 84.2211 98.1031C97.8005 114.02 117.014 137.46 117.014 138.039C117.014 138.473 112.825 138.907 107.913 138.907H98.6673L81.4763 119.663C72.0863 109.245 63.4187 99.4053 62.4074 98.1031C60.6739 95.9326 62.5519 93.3281 79.0205 75.2412L97.5116 54.9838H107.479H117.592L113.98 58.8906ZM144.751 103.746C149.951 109.245 158.763 118.65 164.542 124.872L174.799 136.303L163.097 149.47C156.596 156.849 147.784 166.544 143.45 171.03C135.505 179.422 135.505 179.422 126.982 179.422C122.359 179.422 118.459 178.843 118.459 178.264C118.459 177.541 125.971 168.136 135.072 157.284C144.173 146.431 151.685 137.026 151.685 136.303C151.685 135.724 144.173 126.463 135.072 115.756C125.971 105.048 118.459 95.7879 118.459 95.0645C118.459 94.4857 122.359 94.0516 126.982 94.0516H135.505L144.751 103.746Z" fill="url(#paint0_linear_147_300)"/>
<path d="M68.271 263.224C64.7356 264.084 62.8821 265.39 61.4748 268.037C60.7196 269.447 60.5823 270.169 60.5823 272.369C60.5823 277.079 62.2299 278.901 68.5799 280.999C73.5226 282.649 74.3121 283.233 73.2137 284.334C72.2183 285.331 68.8202 284.609 64.461 282.408C63.4999 281.893 62.6075 281.583 62.5388 281.652C62.2985 281.961 59.2094 288.39 59.2094 288.631C59.2094 288.94 61.6464 290.041 64.5296 291.003C66.5548 291.656 67.6188 291.794 71.3945 291.794C75.5821 291.794 75.9596 291.725 77.6072 290.866C79.8726 289.662 81.3485 287.943 82.035 285.709C82.6529 283.577 82.6872 282.374 82.138 280.483C81.2456 277.32 79.2204 275.773 73.4883 273.813C69.1977 272.369 68.8202 272.163 68.8202 271.338C68.8202 269.825 72.5615 269.997 75.9596 271.647C77.1266 272.232 78.1564 272.713 78.2593 272.713C78.431 272.713 80.1129 269.516 81.2112 267.144L81.7948 265.906L79.0831 264.771C76.1656 263.602 72.7331 262.743 71.0512 262.777C70.5021 262.777 69.2321 262.984 68.271 263.224Z" fill="#3C65FF"/>
<path d="M10.7435 263.43C8.61541 263.808 5.52622 265.595 3.70703 267.486C2.91757 268.311 1.75054 269.996 1.1327 271.268C0.0343243 273.468 0 273.744 0 277.525C0 281.238 0.0686487 281.616 1.06405 283.714C2.4027 286.567 4.9427 289.18 7.7573 290.624C9.85108 291.69 10.16 291.759 13.7297 291.759C16.613 291.793 17.8486 291.655 19.0157 291.174C20.4916 290.555 20.5259 290.555 21.1781 291.277C21.7616 291.896 22.2422 291.965 25.4 291.965C28.043 291.965 29.0041 291.862 29.0041 291.518C29.0041 291.312 28.1116 290.211 27.0476 289.111C25.4 287.392 25.1597 287.014 25.503 286.533C25.7432 286.189 26.4297 284.951 27.0476 283.714C28.0773 281.582 28.1459 281.307 28.1459 277.491C28.1459 273.64 28.1116 273.468 26.9446 271.165C25.4343 268.208 23.2719 266.008 20.3886 264.53C18.5351 263.601 17.7114 263.395 15.2743 263.258C13.6611 263.189 11.6359 263.258 10.7435 263.43ZM17.4711 271.474C19.3246 272.85 20.0797 274.637 20.0797 277.422C20.0797 280.31 19.7365 281.032 18.7754 280.173C18.2605 279.691 17.4368 279.588 14.4849 279.588C12.4597 279.588 10.8122 279.691 10.8122 279.829C10.8122 280.001 11.7732 281.101 12.9403 282.338L15.0341 284.573L14.0043 284.676C12.5284 284.814 10.5719 283.782 9.30189 282.235C8.27216 280.929 8.23784 280.791 8.23784 277.525C8.23784 274.294 8.27216 274.087 9.26757 272.85C10.8122 270.959 12.3568 270.237 14.4849 270.409C15.7549 270.477 16.613 270.787 17.4711 271.474Z" fill="#3C65FF"/>
<path d="M160.157 263.465C156.313 264.153 152.503 267.178 150.478 271.235C149.345 273.504 149.311 273.71 149.311 277.526C149.345 281.274 149.414 281.617 150.443 283.783C151.816 286.671 154.459 289.353 157.205 290.763C159.162 291.725 159.505 291.794 163.384 291.794C167.365 291.794 167.571 291.76 169.631 290.694C172.479 289.181 175.054 286.534 176.392 283.749C177.388 281.617 177.456 281.239 177.456 277.526C177.456 273.71 177.422 273.469 176.289 271.166C173.955 266.456 169.768 263.568 164.756 263.293C163.246 263.19 161.187 263.259 160.157 263.465ZM166.644 271.338C168.772 272.851 169.219 273.951 169.219 277.561C169.219 280.655 169.15 280.93 168.223 282.133C166.85 283.921 165.409 284.746 163.521 284.746C159.779 284.746 157.377 281.927 157.377 277.561C157.377 274.157 159.196 271.2 161.667 270.547C162.972 270.169 165.649 270.616 166.644 271.338Z" fill="#3C65FF"/>
<path d="M39.3354 264.461C38.7519 266.042 38.4429 267.005 36.8983 272.025C36.1089 274.569 34.9419 278.213 34.324 280.104C32.5048 285.639 30.72 291.415 30.72 291.69C30.72 291.862 32.5392 291.965 34.8046 291.965H38.8548L39.4383 289.971C40.5711 286.189 40.1935 286.464 44.1065 286.464C48.0194 286.464 47.6419 286.189 48.7746 290.005L49.3581 291.965H53.4083C55.6738 291.965 57.4929 291.827 57.4929 291.655C57.4929 291.484 57.0467 289.971 56.4975 288.286C55.9827 286.636 55.0216 283.645 54.4038 281.651C53.8202 279.657 53.0308 277.181 52.6875 276.15C52.3443 275.119 51.4175 272.162 50.6624 269.618C49.8729 267.074 49.0835 264.633 48.9119 264.186C48.6029 263.464 48.4313 263.43 44.1408 263.43H39.7129L39.3354 264.461ZM44.7929 274.672C44.9989 275.772 45.3078 277.044 45.4794 277.525C45.6511 278.007 45.8913 278.9 45.9943 279.485L46.2346 280.619H44.0035H41.8067L42.6648 277.422C43.5573 274.019 44.0035 272.712 44.2438 272.712C44.3467 272.712 44.587 273.606 44.7929 274.672Z" fill="#3C65FF"/>
<path d="M87.6986 277.698V291.966H91.6459H95.5932V286.293V280.62H100.055H104.518V286.293V292L108.568 291.897L112.584 291.794L112.687 277.595L112.755 263.43H108.636H104.518V268.587V273.744H100.055H95.5932V268.587V263.43H91.6459H87.6986V277.698Z" fill="#3C65FF"/>
<path d="M118.934 277.697V291.965H122.881H126.828L126.897 285.226L127 278.522L128.716 280.723C129.677 281.926 132.046 284.951 134.036 287.427L137.64 291.965H140.833H143.99V277.697V263.43H140.043H136.096V270.374C136.096 277.01 136.062 277.285 135.512 276.494C135.203 276.013 134.826 275.566 134.723 275.462C134.62 275.359 134.071 274.672 133.522 273.915C132.972 273.159 131.943 271.853 131.29 270.993C130.604 270.134 129.368 268.587 128.51 267.521C127.686 266.455 126.622 265.114 126.176 264.53C125.352 263.43 125.352 263.43 122.16 263.43H118.934V277.697Z" fill="#3C65FF"/>
<path d="M180.512 268.655C181.507 271.543 182.743 275.084 183.258 276.494C183.773 277.903 184.768 280.86 185.523 283.026C186.278 285.192 187.239 288.046 187.686 289.386L188.509 291.793L192.525 291.896C194.722 291.93 196.507 291.93 196.507 291.896C196.507 291.827 197.228 289.799 198.086 287.324C198.944 284.848 199.871 282.167 200.111 281.307C200.523 280.001 203.578 271.165 204.161 269.618C204.573 268.518 206.118 263.808 206.118 263.636C206.118 263.533 204.196 263.43 201.862 263.43H197.605L197.022 265.733C196.679 267.039 196.198 268.758 195.923 269.618C195.649 270.443 195.237 271.99 194.962 273.056C194.207 276.047 192.766 281.032 192.594 281.204C192.491 281.307 192.182 280.482 191.873 279.382C191.221 277.01 190.363 274.019 189.162 269.962C188.715 268.346 188.097 266.249 187.857 265.32L187.377 263.601L183.052 263.498L178.727 263.395L180.512 268.655Z" fill="#3C65FF"/>
<path d="M212.639 267.968C211.816 270.477 210.683 274.087 210.065 275.978C209.447 277.869 208.452 281.032 207.834 283.026C207.216 285.02 206.358 287.77 205.912 289.146C205.466 290.521 205.088 291.724 205.088 291.793C205.088 291.896 206.942 291.965 209.207 291.965C212.227 291.965 213.394 291.862 213.497 291.518C213.566 291.312 213.909 290.108 214.287 288.871L214.939 286.636L218.509 286.533L222.079 286.43L222.937 289.111L223.795 291.793L227.845 291.896C230.591 291.965 231.861 291.862 231.861 291.621C231.861 291.243 231.346 289.489 230.145 285.776C229.802 284.745 229.046 282.27 228.429 280.276C227.811 278.282 226.987 275.566 226.541 274.259C226.129 272.918 225.168 269.962 224.447 267.624L223.108 263.43H218.612H214.115L212.639 267.968ZM219.985 277.628C220.809 280.654 220.843 280.619 218.474 280.619C217.342 280.619 216.415 280.551 216.415 280.482C216.415 280.413 216.896 278.557 217.445 276.391C218.028 274.19 218.474 272.265 218.509 272.128C218.543 271.99 218.749 272.712 218.989 273.744C219.23 274.775 219.676 276.528 219.985 277.628Z" fill="#3C65FF"/>
</g>
<defs>
<linearGradient id="paint0_linear_147_300" x1="7.2252" y1="4.98503" x2="232.938" y2="231.681" gradientUnits="userSpaceOnUse">
<stop stop-color="#3C65FF"/>
<stop offset="0.485577" stop-color="#5841D4"/>
<stop offset="1" stop-color="#2617B1"/>
</linearGradient>
<clipPath id="clip0_147_300">
<rect width="231.861" height="292" fill="white"/>
</clipPath>
</defs>
</svg>
