<svg width="44" height="44" viewBox="0 0 44 44" fill="none" xmlns="http://www.w3.org/2000/svg">
<path d="M4.59303 0.655807C2.84039 1.53034 1.5533 2.81482 0.731745 4.56389L0.0471191 5.98501V21.9999V38.0149L0.731745 39.4907C1.5533 41.1851 3.14163 42.7428 4.89427 43.4807C6.04444 43.9727 6.92076 44 21.9278 44C39.9197 44 39.4268 44.0546 41.5902 41.8683C42.2474 41.1851 43.0964 40.0372 43.3976 39.354C44.0001 38.1242 44.0001 37.9602 44.0001 21.9999V5.87569L43.3702 4.56389C42.5761 2.8968 40.8782 1.20239 39.3172 0.519161C38.1397 0.0272331 37.2907 -9.53674e-05 22.0099 -9.53674e-05L5.9349 0.0272331L4.59303 0.655807ZM21.6539 11.1229C21.2705 11.5602 19.7369 13.2819 18.2855 14.9763C15.903 17.7639 15.6566 18.1192 16.0126 18.5291C18.5868 21.5353 22.229 25.9627 22.229 26.072C22.229 26.154 21.4348 26.236 20.5037 26.236H18.7511L15.4923 22.6012C13.7122 20.6335 12.0691 18.7751 11.8774 18.5291C11.5488 18.1192 11.9048 17.6273 15.0267 14.2111L18.532 10.385H20.4216H22.3385L21.6539 11.1229ZM27.4869 19.595C28.4728 20.6335 30.1433 22.4099 31.2387 23.585L33.183 25.744L30.9648 28.231C29.7325 29.6248 28.062 31.4559 27.2404 32.3031C25.7343 33.8882 25.7343 33.8882 24.1186 33.8882C23.2422 33.8882 22.5028 33.7788 22.5028 33.6695C22.5028 33.5329 23.9269 31.7565 25.6521 29.7068C27.3774 27.6571 28.8014 25.8807 28.8014 25.744C28.8014 25.6347 27.3774 23.8857 25.6521 21.8633C23.9269 19.8409 22.5028 18.0919 22.5028 17.9552C22.5028 17.8459 23.2422 17.7639 24.1186 17.7639H25.7343L27.4869 19.595Z" fill="url(#paint0_linear_222_1408)"/>
<defs>
<linearGradient id="paint0_linear_222_1408" x1="1.41677" y1="0.941537" x2="44.0472" y2="43.9144" gradientUnits="userSpaceOnUse">
<stop stop-color="#2617B1"/>
<stop offset="1" stop-color="#5841D4"/>
</linearGradient>
</defs>
</svg>
