<svg width="61" height="61" viewBox="0 0 61 61" fill="none" xmlns="http://www.w3.org/2000/svg">
<path d="M15.5 26.75H26.75V30.5H15.5V26.75ZM15.5 11.75H38V15.5H15.5V11.75ZM15.5 19.25H38V23H15.5V19.25ZM15.5 45.5H26.75V49.25H15.5V45.5ZM56.75 45.5V41.75H52.8106C52.5674 40.5767 52.1015 39.461 51.4381 38.4631L54.2319 35.6694L51.5806 33.0181L48.7869 35.8119C47.789 35.1485 46.6733 34.6826 45.5 34.4394V30.5H41.75V34.4394C40.5767 34.6826 39.461 35.1485 38.4631 35.8119L35.6694 33.0181L33.0181 35.6694L35.8119 38.4631C35.1485 39.461 34.6826 40.5767 34.4394 41.75H30.5V45.5H34.4394C34.6826 46.6733 35.1485 47.789 35.8119 48.7869L33.0181 51.5806L35.6694 54.2319L38.4631 51.4381C39.461 52.1015 40.5767 52.5674 41.75 52.8106V56.75H45.5V52.8106C46.6733 52.5674 47.789 52.1015 48.7869 51.4381L51.5806 54.2319L54.2319 51.5806L51.4381 48.7869C52.1015 47.789 52.5674 46.6733 52.8106 45.5H56.75ZM43.625 49.25C42.5125 49.25 41.4249 48.9201 40.4999 48.302C39.5749 47.6839 38.8539 46.8054 38.4282 45.7776C38.0024 44.7498 37.891 43.6188 38.1081 42.5276C38.3251 41.4365 38.8609 40.4342 39.6475 39.6475C40.4342 38.8609 41.4365 38.3251 42.5276 38.1081C43.6188 37.891 44.7498 38.0024 45.7776 38.4282C46.8054 38.8539 47.6839 39.5749 48.302 40.4999C48.9201 41.4249 49.25 42.5125 49.25 43.625C49.2485 45.1164 48.6554 46.5463 47.6008 47.6008C46.5463 48.6554 45.1164 49.2485 43.625 49.25Z" fill="white"/>
<path d="M26.75 56.75H11.75C10.7554 56.75 9.80161 56.3549 9.09835 55.6516C8.39509 54.9484 8 53.9946 8 53V8C8 7.00544 8.39509 6.05161 9.09835 5.34835C9.80161 4.64509 10.7554 4.25 11.75 4.25H41.75C42.7446 4.25 43.6984 4.64509 44.4016 5.34835C45.1049 6.05161 45.5 7.00544 45.5 8V26.75H41.75V8H11.75V53H26.75V56.75Z" fill="white"/>
</svg>
