<svg width="54" height="54" viewBox="0 0 54 54" fill="none" xmlns="http://www.w3.org/2000/svg">
<path d="M54 27C54 41.9117 41.9117 54 27 54C12.0883 54 0 41.9117 0 27C0 12.0883 12.0883 0 27 0C41.9117 0 54 12.0883 54 27ZM2.7 27C2.7 40.4205 13.5795 51.3 27 51.3C40.4205 51.3 51.3 40.4205 51.3 27C51.3 13.5795 40.4205 2.7 27 2.7C13.5795 2.7 2.7 13.5795 2.7 27Z" fill="white"/>
<path d="M24.3 33.75L31.05 27L24.3 20.25" stroke="white" stroke-width="2" stroke-linecap="round" stroke-linejoin="round"/>
</svg>
