<svg width="114" height="114" viewBox="0 0 114 114" fill="none" xmlns="http://www.w3.org/2000/svg">
<g clip-path="url(#clip0_96_780)">
<path d="M54.5561 44.5099C55.3399 42.1586 58.6601 42.1586 59.4439 44.5099L64.0395 58.311C65.051 61.3449 66.7553 64.1014 69.0173 66.3621C71.2793 68.6228 74.0367 70.3256 77.0711 71.3355L90.8651 75.9311C93.2164 76.7149 93.2164 80.0351 90.8651 80.8189L77.064 85.4145C74.0302 86.4261 71.2736 88.1304 69.0129 90.3923C66.7522 92.6543 65.0494 95.4118 64.0395 98.4461L59.4439 112.24C59.2749 112.755 58.9476 113.203 58.5088 113.521C58.0699 113.839 57.5419 114.01 57 114.01C56.4581 114.01 55.9301 113.839 55.4912 113.521C55.0524 113.203 54.7251 112.755 54.5561 112.24L49.9605 98.439C48.9497 95.406 47.2464 92.6499 44.9858 90.3892C42.7251 88.1286 39.9691 86.4254 36.936 85.4145L23.1349 80.8189C22.62 80.6499 22.1717 80.3227 21.8538 79.8838C21.5359 79.4449 21.3648 78.9169 21.3648 78.375C21.3648 77.8331 21.5359 77.3051 21.8538 76.8662C22.1717 76.4274 22.62 76.1001 23.1349 75.9311L36.936 71.3355C39.9691 70.3247 42.7251 68.6215 44.9858 66.3608C47.2464 64.1001 48.9497 61.3441 49.9605 58.311L54.5561 44.5099ZM27.0322 8.17951C27.1344 7.87096 27.3312 7.60245 27.5947 7.41215C27.8582 7.22184 28.175 7.1194 28.5 7.1194C28.825 7.1194 29.1418 7.22184 29.4053 7.41215C29.6688 7.60245 29.8656 7.87096 29.9677 8.17951L32.7251 16.4588C33.9577 20.1495 36.8505 23.0423 40.5412 24.2749L48.8205 27.0323C49.129 27.1344 49.3976 27.3312 49.5879 27.5947C49.7782 27.8582 49.8806 28.175 49.8806 28.5C49.8806 28.825 49.7782 29.1418 49.5879 29.4053C49.3976 29.6688 49.129 29.8656 48.8205 29.9678L40.5412 32.7251C38.7199 33.3296 37.0649 34.351 35.7079 35.7079C34.351 37.0649 33.3296 38.7199 32.7251 40.5413L29.9677 48.8205C29.8656 49.1291 29.6688 49.3976 29.4053 49.5879C29.1418 49.7782 28.825 49.8806 28.5 49.8806C28.175 49.8806 27.8582 49.7782 27.5947 49.5879C27.3312 49.3976 27.1344 49.1291 27.0322 48.8205L24.2749 40.5413C23.6704 38.7199 22.649 37.0649 21.2921 35.7079C19.9351 34.351 18.2801 33.3296 16.4587 32.7251L8.17949 29.9678C7.87094 29.8656 7.60243 29.6688 7.41213 29.4053C7.22182 29.1418 7.11938 28.825 7.11938 28.5C7.11938 28.175 7.22182 27.8582 7.41213 27.5947C7.60243 27.3312 7.87094 27.1344 8.17949 27.0323L16.4587 24.2749C18.2801 23.6704 19.9351 22.649 21.2921 21.2921C22.649 19.9351 23.6704 18.2801 24.2749 16.4588L27.0322 8.17951ZM77.3989 0.705387C77.4692 0.502512 77.601 0.326593 77.7759 0.202089C77.9509 0.0775843 78.1603 0.0106812 78.375 0.0106812C78.5897 0.0106812 78.7991 0.0775843 78.974 0.202089C79.149 0.326593 79.2808 0.502512 79.3511 0.705387L81.1894 6.22014C82.0087 8.68539 83.9396 10.6163 86.4049 11.4356L91.9196 13.2739C92.1225 13.3442 92.2984 13.476 92.4229 13.651C92.5474 13.8259 92.6143 14.0353 92.6143 14.25C92.6143 14.4647 92.5474 14.6741 92.4229 14.8491C92.2984 15.024 92.1225 15.1558 91.9196 15.2261L86.4049 17.0644C85.191 17.4705 84.0881 18.153 83.1831 19.0581C82.278 19.9632 81.5955 21.0661 81.1894 22.2799L79.3511 27.7946C79.2808 27.9975 79.149 28.1734 78.974 28.2979C78.7991 28.4224 78.5897 28.4893 78.375 28.4893C78.1603 28.4893 77.9509 28.4224 77.7759 28.2979C77.601 28.1734 77.4692 27.9975 77.3989 27.7946L75.5606 22.2799C75.1545 21.0661 74.472 19.9632 73.5669 19.0581C72.6619 18.153 71.5589 17.4705 70.3451 17.0644L64.8375 15.2261C64.6346 15.1558 64.4587 15.024 64.3342 14.8491C64.2097 14.6741 64.1428 14.4647 64.1428 14.25C64.1428 14.0353 64.2097 13.8259 64.3342 13.651C64.4587 13.476 64.6346 13.3442 64.8375 13.2739L70.3522 11.4356C72.8175 10.6163 74.7484 8.68539 75.5677 6.22014L77.3989 0.705387Z" fill="url(#paint0_linear_96_780)"/>
</g>
<defs>
<linearGradient id="paint0_linear_96_780" x1="49.874" y1="0.0106812" x2="49.874" y2="114.01" gradientUnits="userSpaceOnUse">
<stop stop-color="#5841D4"/>
<stop offset="1" stop-color="#3C65FF"/>
</linearGradient>
<clipPath id="clip0_96_780">
<rect width="114" height="114" fill="white"/>
</clipPath>
</defs>
</svg>
