<svg width="288" height="54" viewBox="0 0 288 54" fill="none" xmlns="http://www.w3.org/2000/svg">
<g clip-path="url(#clip0_142_964)">
<path d="M5.57907 0.804947C3.4281 1.87824 1.84849 3.45464 0.840221 5.60122L0 7.34532V27V46.6547L0.840221 48.4659C1.84849 50.5454 3.7978 52.4572 5.94877 53.3627C7.36034 53.9665 8.43582 54 26.8535 54C48.9345 54 48.3295 54.0671 50.9846 51.3839C51.7912 50.5454 52.8331 49.1367 53.2028 48.2981C53.9422 46.7888 53.9422 46.5876 53.9422 27V7.21116L53.1692 5.60122C52.1946 3.55526 50.1108 1.47575 48.1951 0.637245C46.7499 0.0335159 45.708 -2.28882e-05 26.9543 -2.28882e-05L7.2259 0.0335159L5.57907 0.804947ZM26.5174 13.6509C26.0469 14.1876 24.1648 16.3006 22.3835 18.3801C19.4595 21.8012 19.157 22.2373 19.594 22.7404C22.7532 26.4298 27.2232 31.8634 27.2232 31.9975C27.2232 32.0981 26.2485 32.1988 25.1058 32.1988H22.9548L18.9554 27.7379C16.7708 25.323 14.7543 23.0422 14.519 22.7404C14.1157 22.2373 14.5526 21.6335 18.384 17.441L22.686 12.7453H25.005H27.3576L26.5174 13.6509ZM33.6761 24.0484C34.886 25.323 36.9361 27.5031 38.2805 28.9453L40.6667 31.595L37.9444 34.6472C36.432 36.3578 34.3819 38.605 33.3736 39.6447C31.5251 41.5901 31.5251 41.5901 29.5422 41.5901C28.4667 41.5901 27.5593 41.4559 27.5593 41.3217C27.5593 41.154 29.3069 38.9739 31.4243 36.4584C33.5416 33.9429 35.2893 31.7627 35.2893 31.595C35.2893 31.4609 33.5416 29.3143 31.4243 26.8323C29.3069 24.3503 27.5593 22.2037 27.5593 22.036C27.5593 21.9019 28.4667 21.8012 29.5422 21.8012H31.5251L33.6761 24.0484Z" fill="url(#paint0_linear_142_964)"/>
<path d="M126.84 11.2024C123.378 12.041 121.563 13.3155 120.185 15.8981C119.446 17.2733 119.311 17.9776 119.311 20.1242C119.311 24.7192 120.924 26.4969 127.142 28.5428C131.982 30.1528 132.755 30.723 131.679 31.7962C130.705 32.7689 127.377 32.0646 123.109 29.918C122.168 29.4149 121.294 29.113 121.227 29.1801C120.992 29.482 117.967 35.754 117.967 35.9888C117.967 36.2907 120.353 37.364 123.176 38.3031C125.159 38.9404 126.201 39.0745 129.898 39.0745C133.998 39.0745 134.368 39.0074 135.981 38.1689C138.199 36.995 139.645 35.318 140.317 33.1379C140.922 31.0584 140.955 29.8844 140.418 28.0397C139.544 24.954 137.561 23.4447 131.948 21.5329C127.747 20.1242 127.377 19.9229 127.377 19.118C127.377 17.6422 131.041 17.8099 134.368 19.4198C135.511 19.99 136.519 20.4596 136.62 20.4596C136.788 20.4596 138.435 17.3403 139.51 15.026L140.081 13.8186L137.426 12.7118C134.57 11.5714 131.209 10.7329 129.562 10.7664C129.024 10.7664 127.781 10.9677 126.84 11.2024Z" fill="#3C65FF"/>
<path d="M70.5113 11.4034C68.4275 11.7723 65.4027 13.5164 63.6215 15.3612C62.8485 16.1661 61.7058 17.8096 61.1008 19.0506C60.0253 21.1972 59.9917 21.4655 59.9917 25.155C59.9917 28.7773 60.0589 29.1463 61.0336 31.1922C62.3443 33.9761 64.8314 36.5252 67.5873 37.9338C69.6374 38.9736 69.9399 39.0407 73.4352 39.0407C76.2584 39.0742 77.4683 38.9401 78.611 38.4705C80.0562 37.8668 80.0898 37.8668 80.7284 38.5711C81.2997 39.1748 81.7702 39.2419 84.8623 39.2419C87.4501 39.2419 88.3912 39.1413 88.3912 38.8059C88.3912 38.6047 87.5174 37.5314 86.4755 36.4581C84.8623 34.7811 84.627 34.4121 84.9631 33.9425C85.1983 33.6071 85.8705 32.3997 86.4755 31.1922C87.4837 29.1127 87.551 28.8444 87.551 25.1214C87.551 21.3649 87.5174 21.1972 86.3747 18.95C84.8959 16.0655 82.7785 13.9189 79.9554 12.4767C78.1405 11.5711 77.3339 11.3699 74.9476 11.2357C73.368 11.1686 71.3851 11.2357 70.5113 11.4034ZM77.0986 19.2519C78.9135 20.5935 79.6529 22.3376 79.6529 25.0543C79.6529 27.8717 79.3168 28.5761 78.3757 27.7376C77.8716 27.268 77.065 27.1674 74.1746 27.1674C72.1917 27.1674 70.5785 27.268 70.5785 27.4022C70.5785 27.5699 71.5195 28.6432 72.6622 29.8506L74.7124 32.0307L73.7041 32.1314C72.2589 32.2655 70.3432 31.2593 69.0997 29.75C68.0914 28.4755 68.0578 28.3413 68.0578 25.155C68.0578 22.0022 68.0914 21.8009 69.0661 20.5935C70.5785 18.7487 72.0909 18.0444 74.1746 18.2121C75.4182 18.2792 76.2584 18.581 77.0986 19.2519Z" fill="#3C65FF"/>
<path d="M216.811 11.4372C213.046 12.1081 209.316 15.0596 207.333 19.0174C206.224 21.231 206.19 21.4323 206.19 25.1553C206.224 28.8112 206.291 29.1466 207.299 31.2596C208.644 34.077 211.232 36.6932 213.92 38.0683C215.836 39.0074 216.172 39.0745 219.97 39.0745C223.868 39.0745 224.07 39.041 226.087 38.0012C228.876 36.5255 231.397 33.9428 232.708 31.2261C233.682 29.1466 233.749 28.7776 233.749 25.1553C233.749 21.4323 233.716 21.1975 232.607 18.9503C230.321 14.3553 226.221 11.5379 221.314 11.2695C219.835 11.1689 217.819 11.236 216.811 11.4372ZM223.163 19.118C225.246 20.5938 225.683 21.6671 225.683 25.1888C225.683 28.2074 225.616 28.4758 224.709 29.6497C223.364 31.3938 221.953 32.1987 220.104 32.1987C216.441 32.1987 214.088 29.4484 214.088 25.1888C214.088 21.8683 215.87 18.9838 218.289 18.3466C219.567 17.9776 222.188 18.4136 223.163 19.118Z" fill="#3C65FF"/>
<path d="M98.5074 12.4099C97.936 13.9528 97.6335 14.8919 96.1211 19.7888C95.3481 22.2708 94.2054 25.8261 93.6005 27.6708C91.8192 33.0708 90.0715 38.7056 90.0715 38.9739C90.0715 39.1416 91.8528 39.2422 94.071 39.2422H98.0368L98.6082 37.2969C99.7173 33.6075 99.3476 33.8758 103.179 33.8758C107.01 33.8758 106.641 33.6075 107.75 37.3304L108.321 39.2422H112.287C114.505 39.2422 116.286 39.1081 116.286 38.9404C116.286 38.7727 115.85 37.2969 115.312 35.6534C114.808 34.0435 113.867 31.1255 113.262 29.1801C112.69 27.2348 111.917 24.8199 111.581 23.8137C111.245 22.8075 110.338 19.923 109.598 17.441C108.825 14.959 108.052 12.5776 107.884 12.1416C107.582 11.4373 107.414 11.4037 103.213 11.4037H98.8771L98.5074 12.4099ZM103.851 22.3714C104.053 23.4447 104.355 24.6857 104.523 25.1553C104.691 25.6248 104.927 26.4969 105.027 27.0671L105.263 28.1739H103.078H100.927L101.767 25.0547C102.641 21.7342 103.078 20.4596 103.313 20.4596C103.414 20.4596 103.65 21.3317 103.851 22.3714Z" fill="#3C65FF"/>
<path d="M145.862 25.323V39.2423H149.727H153.592V33.7081V28.174H157.961H162.331V33.7081V39.2758L166.296 39.1752L170.229 39.0746L170.33 25.2224L170.397 11.4038H166.364H162.331V16.4348V21.4659H157.961H153.592V16.4348V11.4038H149.727H145.862V25.323Z" fill="#3C65FF"/>
<path d="M176.447 25.323V39.2422H180.312H184.177L184.244 32.6683L184.345 26.128L186.025 28.2745C186.966 29.4485 189.285 32.4 191.234 34.8149L194.763 39.2422H197.889H200.981V25.323V11.4037H197.116H193.251V18.1789C193.251 24.6522 193.217 24.9205 192.68 24.1491C192.377 23.6795 192.007 23.2435 191.907 23.1429C191.806 23.0422 191.268 22.3714 190.73 21.6335C190.193 20.8957 189.184 19.6211 188.546 18.7826C187.874 17.9441 186.664 16.4348 185.823 15.395C185.017 14.3553 183.975 13.0472 183.538 12.477C182.731 11.4037 182.731 11.4037 179.606 11.4037H176.447V25.323Z" fill="#3C65FF"/>
<path d="M236.741 16.5019C237.715 19.3192 238.925 22.7739 239.43 24.1491C239.934 25.5242 240.908 28.4087 241.648 30.5217C242.387 32.6348 243.328 35.4186 243.765 36.7267L244.572 39.0745L248.504 39.1752C250.655 39.2087 252.403 39.2087 252.403 39.1752C252.403 39.1081 253.108 37.1292 253.949 34.7143C254.789 32.2994 255.696 29.6832 255.931 28.8447C256.335 27.5702 259.326 18.9503 259.897 17.441C260.301 16.3677 261.813 11.7727 261.813 11.605C261.813 11.5043 259.931 11.4037 257.646 11.4037H253.478L252.907 13.6509C252.571 14.9255 252.1 16.6025 251.831 17.441C251.562 18.246 251.159 19.7553 250.89 20.795C250.151 23.713 248.739 28.5764 248.571 28.7441C248.47 28.8447 248.168 28.0397 247.865 26.9665C247.227 24.6522 246.387 21.7342 245.21 17.7764C244.773 16.2 244.168 14.154 243.933 13.2484L243.463 11.5714L239.228 11.4708L234.993 11.3702L236.741 16.5019Z" fill="#3C65FF"/>
<path d="M268.199 15.8311C267.392 18.2795 266.283 21.8012 265.678 23.646C265.073 25.4907 264.098 28.5764 263.493 30.5217C262.888 32.4671 262.048 35.1503 261.611 36.4919C261.174 37.8335 260.805 39.0075 260.805 39.0745C260.805 39.1752 262.62 39.2422 264.838 39.2422C267.795 39.2422 268.938 39.1416 269.039 38.8062C269.106 38.605 269.442 37.4311 269.812 36.2236L270.45 34.0435L273.946 33.9429L277.441 33.8422L278.281 36.4584L279.122 39.0745L283.087 39.1752C285.776 39.2422 287.02 39.1416 287.02 38.9068C287.02 38.5379 286.515 36.8273 285.339 33.205C285.003 32.1988 284.264 29.7839 283.659 27.8385C283.054 25.8932 282.247 23.2435 281.81 21.9689C281.407 20.6609 280.466 17.7764 279.76 15.4956L278.449 11.4037H274.047H269.644L268.199 15.8311ZM275.391 25.2559C276.198 28.2075 276.231 28.1739 273.912 28.1739C272.803 28.1739 271.896 28.1068 271.896 28.0398C271.896 27.9727 272.366 26.1615 272.904 24.0484C273.475 21.9019 273.912 20.0236 273.946 19.8894C273.979 19.7553 274.181 20.4596 274.416 21.4658C274.652 22.472 275.088 24.1826 275.391 25.2559Z" fill="#3C65FF"/>
</g>
<defs>
<linearGradient id="paint0_linear_142_964" x1="1.68094" y1="1.15561" x2="54" y2="53.8949" gradientUnits="userSpaceOnUse">
<stop stop-color="#2617B1"/>
<stop offset="1" stop-color="#5841D4"/>
</linearGradient>
<clipPath id="clip0_142_964">
<rect width="287.02" height="54" fill="white"/>
</clipPath>
</defs>
</svg>
