<svg width="59" height="59" viewBox="0 0 59 59" fill="none" xmlns="http://www.w3.org/2000/svg">
<path fill-rule="evenodd" clip-rule="evenodd" d="M9.61875 1.4325C13.7263 1.09875 20.2325 0.75 29.5 0.75C38.7675 0.75 45.2738 1.09875 49.3812 1.4325C53.7962 1.79125 57.21 5.20375 57.5688 9.62C57.9025 13.725 58.25 20.2313 58.25 29.5C58.25 38.7687 57.9025 45.2738 57.5688 49.3812C57.21 53.7962 53.7962 57.21 49.3812 57.5688C45.2738 57.9025 38.7675 58.25 29.5 58.25C20.2325 58.25 13.7263 57.9025 9.61875 57.5688C5.20375 57.21 1.79 53.7962 1.43125 49.3812C1.1 45.2738 0.75 38.7675 0.75 29.5C0.75 20.2325 1.09875 13.7263 1.4325 9.61875C1.79125 5.20375 5.20375 1.79 9.62 1.43125M5.96875 17.625C5.81715 21.5815 5.74422 25.5406 5.75 29.5C5.75 38.6425 6.09375 45.0125 6.415 48.975C6.57625 50.95 8.05125 52.425 10.0237 52.585C13.9875 52.9062 20.3575 53.25 29.5 53.25C38.6425 53.25 45.0125 52.9062 48.975 52.585C50.95 52.4237 52.425 50.9488 52.585 48.9762C52.9062 45.0125 53.25 38.6425 53.25 29.5C53.25 24.8375 53.1613 20.895 53.03 17.625H5.96875ZM8.5625 10.125C8.5625 8.9175 9.5425 7.9375 10.75 7.9375H13.25C13.8302 7.9375 14.3866 8.16797 14.7968 8.5782C15.207 8.98844 15.4375 9.54484 15.4375 10.125C15.4375 10.7052 15.207 11.2616 14.7968 11.6718C14.3866 12.082 13.8302 12.3125 13.25 12.3125H10.75C10.1698 12.3125 9.61344 12.082 9.2032 11.6718C8.79297 11.2616 8.5625 10.7052 8.5625 10.125ZM20.75 7.9375C20.1698 7.9375 19.6134 8.16797 19.2032 8.5782C18.793 8.98844 18.5625 9.54484 18.5625 10.125C18.5625 10.7052 18.793 11.2616 19.2032 11.6718C19.6134 12.082 20.1698 12.3125 20.75 12.3125H23.25C23.8302 12.3125 24.3866 12.082 24.7968 11.6718C25.207 11.2616 25.4375 10.7052 25.4375 10.125C25.4375 9.54484 25.207 8.98844 24.7968 8.5782C24.3866 8.16797 23.8302 7.9375 23.25 7.9375H20.75Z" fill="url(#paint0_linear_822_42)"/>
<defs>
<linearGradient id="paint0_linear_822_42" x1="29.5" y1="0.75" x2="29.5" y2="58.25" gradientUnits="userSpaceOnUse">
<stop stop-color="#3C65FF"/>
<stop offset="0.5" stop-color="#5841D4"/>
<stop offset="1" stop-color="#2617B1"/>
</linearGradient>
</defs>
</svg>
