<svg width="24" height="16" viewBox="0 0 24 16" fill="none" xmlns="http://www.w3.org/2000/svg">
<path d="M16.484 7.976L22.635 2.632V13.259L16.484 7.976ZM8.558 8.881L10.718 10.756C11.057 11.044 11.499 11.218 11.982 11.218H11.999H12.012C12.496 11.218 12.938 11.043 13.281 10.753L13.278 10.755L15.438 8.88L22.004 14.519H1.995L8.558 8.881ZM1.986 1.365H22.016L12.395 9.721C12.2873 9.80742 12.1531 9.85404 12.015 9.853H12.001H11.988C11.8495 9.85399 11.7148 9.80699 11.607 9.72L11.608 9.721L1.986 1.365ZM1.365 2.631L7.515 7.975L1.365 13.255V2.631ZM22.965 0.19C22.725 0.0700001 22.443 0 22.144 0H1.859C1.56929 0.00114682 1.28367 0.0685312 1.024 0.197L1.035 0.192C0.724866 0.345482 0.463696 0.582436 0.280854 0.876219C0.0980128 1.17 0.00074936 1.50897 0 1.855L0 14.027C0.000529404 14.5196 0.196452 14.9919 0.54478 15.3402C0.893108 15.6885 1.36539 15.8845 1.858 15.885H22.141C22.6336 15.8845 23.1059 15.6885 23.4542 15.3402C23.8025 14.9919 23.9985 14.5196 23.999 14.027V1.855C23.999 1.128 23.58 0.498 22.97 0.195L22.959 0.19H22.965Z" fill="url(#paint0_linear_147_348)"/>
<defs>
<linearGradient id="paint0_linear_147_348" x1="11.9995" y1="0" x2="11.9995" y2="15.885" gradientUnits="userSpaceOnUse">
<stop stop-color="#3C65FF"/>
<stop offset="0.504808" stop-color="#5841D4"/>
<stop offset="1" stop-color="#2617B1"/>
</linearGradient>
</defs>
</svg>
