<svg width="61" height="61" viewBox="0 0 61 61" fill="none" xmlns="http://www.w3.org/2000/svg">
<path d="M30.5 5.5C16.6925 5.5 5.5 16.6925 5.5 30.5C5.5 44.3075 16.6925 55.5 30.5 55.5C44.3075 55.5 55.5 44.3075 55.5 30.5C55.5 16.6925 44.3075 5.5 30.5 5.5ZM47.795 20.5H39.7575C39.384 17.687 38.9129 14.8878 38.345 12.1075C42.3145 13.8176 45.6279 16.7603 47.795 20.5ZM33.035 10.68C33.205 11.56 34.0025 15.775 34.6475 20.5H26.3525C26.9975 15.775 27.795 11.56 27.965 10.68C28.7975 10.5725 29.64 10.5 30.5 10.5C31.36 10.5 32.2025 10.5725 33.035 10.68ZM35.5 30.5C35.5 31.995 35.3925 33.715 35.2275 35.5H25.7725C25.6075 33.715 25.5 31.995 25.5 30.5C25.5 29.005 25.6075 27.285 25.7725 25.5H35.2275C35.3925 27.285 35.5 29.005 35.5 30.5ZM22.655 12.1075C22.0871 14.8878 21.616 17.687 21.2425 20.5H13.205C15.3721 16.7603 18.6855 13.8176 22.655 12.1075ZM11.1575 25.5H20.71C20.5825 27.17 20.5 28.86 20.5 30.5C20.5 32.14 20.5825 33.83 20.7125 35.5H11.1575C10.7425 33.8975 10.5 32.23 10.5 30.5C10.5 28.77 10.745 27.1025 11.1575 25.5ZM13.205 40.5H21.2425C21.7125 44.06 22.2925 47.125 22.655 48.8925C18.6855 47.1824 15.3721 44.2397 13.205 40.5ZM27.965 50.32C27.343 47.0611 26.8053 43.7867 26.3525 40.5H34.6475C34.1936 43.7865 33.656 47.0609 33.035 50.32C32.2025 50.4275 31.36 50.5 30.5 50.5C29.64 50.5 28.7975 50.4275 27.965 50.32ZM38.345 48.8925C38.7075 47.125 39.2875 44.06 39.7575 40.5H47.795C45.6279 44.2397 42.3145 47.1824 38.345 48.8925ZM49.8425 35.5H40.29C40.4175 33.83 40.5 32.14 40.5 30.5C40.5 28.86 40.4175 27.17 40.2875 25.5H49.84C50.255 27.1025 50.5 28.77 50.5 30.5C50.5 32.23 50.2575 33.8975 49.8425 35.5Z" fill="url(#paint0_linear_624_57)"/>
<defs>
<linearGradient id="paint0_linear_624_57" x1="30.5" y1="5.5" x2="30.5" y2="55.5" gradientUnits="userSpaceOnUse">
<stop stop-color="#3C65FF"/>
<stop offset="0.5" stop-color="#5841D4"/>
<stop offset="1" stop-color="#2617B1"/>
</linearGradient>
</defs>
</svg>
