<svg width="60" height="61" viewBox="0 0 60 61" fill="none" xmlns="http://www.w3.org/2000/svg">
<path d="M55 21.75C55 25.175 52.2 28 48.75 28C45.3 28 42.5 25.175 42.5 21.75C42.5 25.175 39.7 28 36.25 28C32.8 28 30 25.175 30 21.75C30 25.175 27.2 28 23.75 28C20.3 28 17.5 25.175 17.5 21.75C17.5 25.175 14.7 28 11.25 28C7.8 28 5 25.175 5 21.75L8.475 8.2C8.475 8.2 9.2 5.5 11.75 5.5H48.25C50.8 5.5 51.525 8.2 51.525 8.2L55 21.75ZM52.5 31V50.5C52.5 53.25 50.25 55.5 47.5 55.5H12.5C9.75 55.5 7.5 53.25 7.5 50.5V31C9.14344 31.6786 10.9393 31.902 12.6989 31.6469C14.4585 31.3917 16.117 30.6674 17.5 29.55C19.225 30.925 21.4 31.75 23.75 31.75C26.125 31.75 28.3 30.925 30 29.55C31.725 30.925 33.9 31.75 36.25 31.75C38.625 31.75 40.8 30.925 42.5 29.55C44.2 30.925 46.4 31.75 48.75 31.75C50.075 31.75 51.35 31.475 52.5 31ZM47.5 43.825C47.5 43.325 47.5 42.8 47.375 42.25L47.3 41.85H39.875V44.775H44.4C44.25 45.325 44.05 45.875 43.625 46.325C42.8 47.15 41.675 47.6 40.475 47.6C39.225 47.6 38 47.075 37.1 46.2C35.375 44.425 35.375 41.55 37.15 39.75C38.875 38 41.725 38 43.525 39.675L43.875 40L45.975 37.875L45.575 37.525C44.175 36.225 42.325 35.5 40.375 35.5H40.35C38.325 35.5 36.425 36.275 35 37.675C33.525 39.125 32.7 41.025 32.7 43C32.7 45 33.475 46.85 34.9 48.225C36.3849 49.6744 38.375 50.4902 40.45 50.5H40.5C42.5 50.5 44.275 49.775 45.575 48.5C46.75 47.3 47.5 45.5 47.5 43.825Z" fill="url(#paint0_linear_624_143)"/>
<defs>
<linearGradient id="paint0_linear_624_143" x1="30" y1="5.5" x2="30" y2="55.5" gradientUnits="userSpaceOnUse">
<stop stop-color="#3C65FF"/>
<stop offset="0.5" stop-color="#5841D4"/>
<stop offset="1" stop-color="#2617B1"/>
</linearGradient>
</defs>
</svg>
