<svg width="60" height="61" viewBox="0 0 60 61" fill="none" xmlns="http://www.w3.org/2000/svg">
<path d="M20 8C15.3587 8 10.9075 9.84375 7.62563 13.1256C4.34374 16.4075 2.5 20.8587 2.5 25.5C2.5 30.1413 4.34374 34.5925 7.62563 37.8744C10.9075 41.1563 15.3587 43 20 43H22.675C22.4357 41.3419 22.4357 39.6581 22.675 38H20C16.6848 38 13.5054 36.683 11.1612 34.3388C8.81696 31.9946 7.5 28.8152 7.5 25.5C7.5 22.1848 8.81696 19.0054 11.1612 16.6612C13.5054 14.317 16.6848 13 20 13H40C41.8538 12.9996 43.6845 13.4116 45.3594 14.206C47.0343 15.0005 48.5116 16.1575 49.6842 17.5933C50.8568 19.0291 51.6953 20.7078 52.1391 22.5077C52.5829 24.3076 52.6208 26.1837 52.25 28C53.7237 29.4435 54.9307 31.1362 55.815 33C57.0804 30.3323 57.6502 27.3879 57.4715 24.4407C57.2928 21.4936 56.3713 18.6395 54.7928 16.1443C53.2144 13.6491 51.0302 11.5938 48.4438 10.1698C45.8573 8.74583 42.9526 7.99939 40 8H20ZM40 33C38.0109 33 36.1032 33.7902 34.6967 35.1967C33.2902 36.6032 32.5 38.5109 32.5 40.5C32.5 42.4891 33.2902 44.3968 34.6967 45.8033C36.1032 47.2098 38.0109 48 40 48C41.9891 48 43.8968 47.2098 45.3033 45.8033C46.7098 44.3968 47.5 42.4891 47.5 40.5C47.5 38.5109 46.7098 36.6032 45.3033 35.1967C43.8968 33.7902 41.9891 33 40 33ZM27.5 40.5C27.5005 38.551 27.9567 36.6292 28.8322 34.8879C29.7077 33.1466 30.9782 31.6342 32.5423 30.4714C34.1064 29.3086 35.9207 28.5277 37.8404 28.191C39.76 27.8543 41.7318 27.9711 43.5983 28.5321C45.4648 29.0932 47.1742 30.0829 48.5901 31.4222C50.0059 32.7616 51.089 34.4134 51.7527 36.2459C52.4165 38.0783 52.6426 40.0406 52.4129 41.976C52.1832 43.9114 51.5042 45.7663 50.43 47.3925L56.7675 53.7325L53.2325 57.2675L46.8925 50.93C45.0084 52.1753 42.8221 52.8869 40.566 52.9892C38.3098 53.0914 36.0681 52.5805 34.0791 51.5107C32.0901 50.441 30.428 48.8523 29.2696 46.9136C28.1112 44.9748 27.4996 42.7585 27.5 40.5Z" fill="url(#paint0_linear_624_186)"/>
<defs>
<linearGradient id="paint0_linear_624_186" x1="30.0018" y1="8" x2="30.0018" y2="57.2675" gradientUnits="userSpaceOnUse">
<stop stop-color="#3C65FF"/>
<stop offset="0.5" stop-color="#5841D4"/>
<stop offset="1" stop-color="#2617B1"/>
</linearGradient>
</defs>
</svg>
