<svg width="61" height="61" viewBox="0 0 61 61" fill="none" xmlns="http://www.w3.org/2000/svg">
<g clip-path="url(#clip0_624_73)">
<path d="M30.675 44.1149C28.9916 44.5724 27.2544 44.802 25.51 44.7974H24.2925C23.2586 41.6834 22.4449 38.5005 21.8575 35.2724H30.675C31.1174 35.268 31.5487 35.1332 31.915 34.8849V30.7674C31.5515 30.5103 31.12 30.3667 30.675 30.3549H21.125C20.7787 27.1682 20.6651 23.9606 20.785 20.7574H31.99C32.37 18.6524 34.08 17.0424 36.2025 16.7874C38.325 16.5324 36.2025 16.5924 36.2025 16.4949V15.8874H35.2775C34.7769 13.2801 34.2327 10.6814 33.645 8.0924C34.975 8.7149 36.225 9.4924 37.37 10.4074C38.125 9.29523 39.2063 8.4445 40.465 7.9724V6.6574C37.5949 4.39639 34.2465 2.82051 30.675 2.0499H30.455C18.75 -0.475098 6.97996 6.0374 2.90996 17.2999C-1.16004 28.5624 2.90996 17.4949 2.90996 17.5924C1.05915 22.7566 1.05915 28.4032 2.90996 33.5674V33.8599C4.39167 37.8842 6.91928 41.4408 10.2325 44.1634C13.5457 46.8861 17.5248 48.6763 21.76 49.3499C21.9959 49.4267 22.2419 49.468 22.49 49.4724C23.5 49.5991 24.515 49.6641 25.535 49.6674C27.69 49.6674 29.835 49.3799 31.915 48.8149V44.1149C31.5098 43.9988 31.0801 43.9988 30.675 44.1149ZM16.255 30.3549H6.92996C6.53092 28.8113 6.32518 27.2242 6.31746 25.6299C6.32283 23.9855 6.53619 22.3483 6.95246 20.7574H15.915C15.7915 23.9606 15.9051 27.1685 16.255 30.3549ZM28.2375 6.5599C28.8725 9.1899 29.845 13.4999 30.3075 15.9099H21.1275C21.4775 12.7549 22.0525 9.6299 22.855 6.5599C23.7424 6.42653 24.6377 6.35303 25.535 6.3399C26.4397 6.35202 27.3426 6.42552 28.2375 6.5599ZM17.4725 8.1424C16.9272 10.7002 16.5208 13.2857 16.255 15.8874H8.94996C10.9346 12.4962 13.9094 9.79352 17.475 8.1424M8.92496 35.2249H16.915C17.3983 38.0466 18.04 40.8316 18.84 43.5799C14.6683 42.0252 11.1644 39.0726 8.92496 35.2249ZM41.05 17.7374H52.01C52.585 17.7249 53.075 17.3074 53.1775 16.7374C53.28 16.1674 53.1775 16.5924 53.1775 16.5199V13.8899C53.1406 13.5158 53.0337 13.152 52.8625 12.8174C52.7471 12.6445 52.6166 12.4822 52.4725 12.3324C52.3979 12.2076 52.308 12.0925 52.205 11.9899C52.0325 11.8449 51.8375 11.7699 51.6675 11.6499L51.3025 11.4549C51.1323 11.4329 50.9601 11.4329 50.79 11.4549C50.6291 11.4324 50.4659 11.4324 50.305 11.4549H48.915V3.7099C48.915 3.0641 48.6584 2.44475 48.2018 1.9881C47.7451 1.53145 47.1258 1.2749 46.48 1.2749C45.8342 1.2749 45.2148 1.53145 44.7582 1.9881C44.3015 2.44475 44.045 3.0641 44.045 3.7099V11.2599H42.8525C42.6659 11.2494 42.479 11.2494 42.2925 11.2599C42.1544 11.2484 42.0156 11.2484 41.8775 11.2599C41.6658 11.3599 41.4625 11.4732 41.2675 11.5999C41.146 11.6598 41.0319 11.7337 40.9275 11.8199C40.7494 11.979 40.6012 12.1686 40.49 12.3799C40.4105 12.4639 40.337 12.5533 40.27 12.6474C40.1033 12.9565 40.0037 13.2972 39.9775 13.6474V16.5224C39.976 16.8213 40.0844 17.1102 40.2822 17.3343C40.48 17.5583 40.7532 17.7018 41.05 17.7374Z" fill="url(#paint0_linear_624_73)"/>
<path d="M59.9 57.2901C59.9 56.6443 59.6434 56.0249 59.1868 55.5683C58.7301 55.1116 58.1108 54.8551 57.465 54.8551V21.5626C57.4527 21.248 57.319 20.9504 57.092 20.7322C56.865 20.5141 56.5623 20.3923 56.2475 20.3926H36.7625C36.4473 20.3991 36.1452 20.5199 35.9125 20.7326C35.686 20.9505 35.5541 21.2485 35.545 21.5626V54.8551H4.39496C3.74916 54.8551 3.12981 55.1116 2.67316 55.5683C2.2165 56.0249 1.95996 56.6443 1.95996 57.2901C1.95996 57.9359 2.2165 58.5552 2.67316 59.0119C3.12981 59.4685 3.74916 59.7251 4.39496 59.7251H57.465C58.1108 59.7251 58.7301 59.4685 59.1868 59.0119C59.6434 58.5552 59.9 57.9359 59.9 57.2901ZM50.1575 32.3501H42.8525C42.6128 32.3501 42.3755 32.3029 42.1541 32.2112C41.9326 32.1194 41.7315 31.985 41.562 31.8155C41.3925 31.6461 41.2581 31.4449 41.1664 31.2235C41.0747 31.0021 41.0275 30.7647 41.0275 30.5251C41.0275 30.2854 41.0747 30.0481 41.1664 29.8267C41.2581 29.6053 41.3925 29.4041 41.562 29.2346C41.7315 29.0651 41.9326 28.9307 42.1541 28.839C42.3755 28.7473 42.6128 28.7001 42.8525 28.7001H50.1575C50.6415 28.7001 51.1057 28.8924 51.4479 29.2346C51.7902 29.5769 51.9825 30.0411 51.9825 30.5251C51.9825 31.0091 51.7902 31.4733 51.4479 31.8155C51.1057 32.1578 50.6415 32.3501 50.1575 32.3501ZM51.9825 39.4876C51.9825 39.9716 51.7902 40.4358 51.4479 40.7781C51.1057 41.1203 50.6415 41.3126 50.1575 41.3126H42.8525C42.3684 41.3126 41.9042 41.1203 41.562 40.7781C41.2197 40.4358 41.0275 39.9716 41.0275 39.4876C41.0275 39.0036 41.2197 38.5394 41.562 38.1971C41.9042 37.8549 42.3684 37.6626 42.8525 37.6626H50.1575C50.6438 37.6625 51.1106 37.854 51.4568 38.1956C51.8031 38.5371 52.0009 39.0013 52.0075 39.4876H51.9825ZM42.8525 46.6226H50.1575C50.6421 46.6226 51.107 46.8151 51.4497 47.1578C51.7924 47.5006 51.985 47.9654 51.985 48.4501C51.985 48.9348 51.7924 49.3996 51.4497 49.7423C51.107 50.085 50.6421 50.2776 50.1575 50.2776H42.8525C42.3678 50.2776 41.9029 50.085 41.5602 49.7423C41.2175 49.3996 41.025 48.9348 41.025 48.4501C41.025 47.9654 41.2175 47.5006 41.5602 47.1578C41.9029 46.8151 42.3678 46.6226 42.8525 46.6226Z" fill="url(#paint1_linear_624_73)"/>
</g>
<defs>
<linearGradient id="paint0_linear_624_73" x1="27.162" y1="1.2749" x2="27.162" y2="49.6674" gradientUnits="userSpaceOnUse">
<stop stop-color="#3C65FF"/>
<stop offset="0.5" stop-color="#5841D4"/>
<stop offset="1" stop-color="#2617B1"/>
</linearGradient>
<linearGradient id="paint1_linear_624_73" x1="30.93" y1="20.3926" x2="30.93" y2="59.7251" gradientUnits="userSpaceOnUse">
<stop stop-color="#3C65FF"/>
<stop offset="0.5" stop-color="#5841D4"/>
<stop offset="1" stop-color="#2617B1"/>
</linearGradient>
<clipPath id="clip0_624_73">
<rect width="60" height="60" fill="white" transform="translate(0.5 0.5)"/>
</clipPath>
</defs>
</svg>
