<svg width="61" height="61" viewBox="0 0 61 61" fill="none" xmlns="http://www.w3.org/2000/svg">
<path d="M10.5 8C9.83696 8 9.20107 8.26339 8.73223 8.73223C8.26339 9.20107 8 9.83696 8 10.5V25.5C8 26.163 8.26339 26.7989 8.73223 27.2678C9.20107 27.7366 9.83696 28 10.5 28H25.5C26.163 28 26.7989 27.7366 27.2678 27.2678C27.7366 26.7989 28 26.163 28 25.5V10.5C28 9.83696 27.7366 9.20107 27.2678 8.73223C26.7989 8.26339 26.163 8 25.5 8H10.5ZM10.5 33C9.83696 33 9.20107 33.2634 8.73223 33.7322C8.26339 34.2011 8 34.837 8 35.5V50.5C8 51.163 8.26339 51.7989 8.73223 52.2678C9.20107 52.7366 9.83696 53 10.5 53H25.5C26.163 53 26.7989 52.7366 27.2678 52.2678C27.7366 51.7989 28 51.163 28 50.5V35.5C28 34.837 27.7366 34.2011 27.2678 33.7322C26.7989 33.2634 26.163 33 25.5 33H10.5ZM35.5 33C34.837 33 34.2011 33.2634 33.7322 33.7322C33.2634 34.2011 33 34.837 33 35.5V50.5C33 51.163 33.2634 51.7989 33.7322 52.2678C34.2011 52.7366 34.837 53 35.5 53H50.5C51.163 53 51.7989 52.7366 52.2678 52.2678C52.7366 51.7989 53 51.163 53 50.5V35.5C53 34.837 52.7366 34.2011 52.2678 33.7322C51.7989 33.2634 51.163 33 50.5 33H35.5ZM40.5 28V20.5H33V15.5H40.5V8H45.5V15.5H53V20.5H45.5V28H40.5Z" fill="url(#paint0_linear_624_44)"/>
<defs>
<linearGradient id="paint0_linear_624_44" x1="30.5" y1="8" x2="30.5" y2="53" gradientUnits="userSpaceOnUse">
<stop stop-color="#3C65FF"/>
<stop offset="0.5" stop-color="#5841D4"/>
<stop offset="1" stop-color="#2617B1"/>
</linearGradient>
</defs>
</svg>
