<svg width="61" height="61" viewBox="0 0 61 61" fill="none" xmlns="http://www.w3.org/2000/svg">
<path fill-rule="evenodd" clip-rule="evenodd" d="M10.6188 2.4325C14.7263 2.09875 21.2325 1.75 30.5 1.75C39.7675 1.75 46.2738 2.09875 50.3812 2.4325C54.7962 2.79125 58.21 6.20375 58.5688 10.62C58.9025 14.725 59.25 21.2313 59.25 30.5C59.25 39.7687 58.9025 46.2738 58.5688 50.3812C58.21 54.7962 54.7962 58.21 50.3812 58.5688C46.2738 58.9025 39.7675 59.25 30.5 59.25C21.2325 59.25 14.7263 58.9025 10.6188 58.5688C6.20375 58.21 2.79 54.7962 2.43125 50.3812C2.1 46.2738 1.75 39.7675 1.75 30.5C1.75 21.2325 2.09875 14.7263 2.4325 10.6188C2.79125 6.20375 6.20375 2.79 10.62 2.43125M6.96875 18.625C6.81715 22.5815 6.74422 26.5406 6.75 30.5C6.75 39.6425 7.09375 46.0125 7.415 49.975C7.57625 51.95 9.05125 53.425 11.0237 53.585C14.9875 53.9062 21.3575 54.25 30.5 54.25C39.6425 54.25 46.0125 53.9062 49.975 53.585C51.95 53.4237 53.425 51.9488 53.585 49.9762C53.9062 46.0125 54.25 39.6425 54.25 30.5C54.25 25.8375 54.1613 21.895 54.03 18.625H6.96875ZM9.5625 11.125C9.5625 9.9175 10.5425 8.9375 11.75 8.9375H14.25C14.8302 8.9375 15.3866 9.16797 15.7968 9.5782C16.207 9.98844 16.4375 10.5448 16.4375 11.125C16.4375 11.7052 16.207 12.2616 15.7968 12.6718C15.3866 13.082 14.8302 13.3125 14.25 13.3125H11.75C11.1698 13.3125 10.6134 13.082 10.2032 12.6718C9.79297 12.2616 9.5625 11.7052 9.5625 11.125ZM21.75 8.9375C21.1698 8.9375 20.6134 9.16797 20.2032 9.5782C19.793 9.98844 19.5625 10.5448 19.5625 11.125C19.5625 11.7052 19.793 12.2616 20.2032 12.6718C20.6134 13.082 21.1698 13.3125 21.75 13.3125H24.25C24.8302 13.3125 25.3866 13.082 25.7968 12.6718C26.207 12.2616 26.4375 11.7052 26.4375 11.125C26.4375 10.5448 26.207 9.98844 25.7968 9.5782C25.3866 9.16797 24.8302 8.9375 24.25 8.9375H21.75Z" fill="url(#paint0_linear_624_51)"/>
<defs>
<linearGradient id="paint0_linear_624_51" x1="30.5" y1="1.75" x2="30.5" y2="59.25" gradientUnits="userSpaceOnUse">
<stop stop-color="#3C65FF"/>
<stop offset="0.5" stop-color="#5841D4"/>
<stop offset="1" stop-color="#2617B1"/>
</linearGradient>
</defs>
</svg>
