<svg width="20" height="20" viewBox="0 0 20 20" fill="none" xmlns="http://www.w3.org/2000/svg">
<path d="M6 1C6.5 1 8.5 5.5 8.5 6C8.5 7 7 8 6.5 9C6 10 7 11 8 12C8.39 12.39 10 14 11 13.5C12 13 13 11.5 14 11.5C14.5 11.5 19 13.5 19 14C19 16 17.5 17.5 16 18C14.5 18.5 13.5 18.5 11.5 18C9.5 17.5 8 17 5.5 14.5C3 12 2.5 10.5 2 8.5C1.5 6.5 1.5 5.5 2 4C2.5 2.5 4 1 6 1Z" fill="black" stroke="url(#paint0_linear_147_352)" stroke-width="2" stroke-linecap="round" stroke-linejoin="round"/>
<path d="M13 4H19" stroke="url(#paint1_linear_147_352)" stroke-width="2" stroke-linecap="round" stroke-linejoin="round"/>
<path d="M16 1V7" stroke="url(#paint2_linear_147_352)" stroke-width="2" stroke-linecap="round" stroke-linejoin="round"/>
<defs>
<linearGradient id="paint0_linear_147_352" x1="10.3125" y1="1" x2="10.3125" y2="18.375" gradientUnits="userSpaceOnUse">
<stop stop-color="#3C65FF"/>
<stop offset="0.519231" stop-color="#5841D4"/>
<stop offset="1" stop-color="#2617B1"/>
</linearGradient>
<linearGradient id="paint1_linear_147_352" x1="16" y1="4" x2="16" y2="5" gradientUnits="userSpaceOnUse">
<stop stop-color="#3C65FF"/>
<stop offset="0.519231" stop-color="#5841D4"/>
<stop offset="1" stop-color="#2617B1"/>
</linearGradient>
<linearGradient id="paint2_linear_147_352" x1="16.5" y1="1" x2="16.5" y2="7" gradientUnits="userSpaceOnUse">
<stop stop-color="#3C65FF"/>
<stop offset="0.519231" stop-color="#5841D4"/>
<stop offset="1" stop-color="#2617B1"/>
</linearGradient>
</defs>
</svg>
