<svg width="61" height="61" viewBox="0 0 61 61" fill="none" xmlns="http://www.w3.org/2000/svg">
<path d="M19.25 58.625H41.75M2.375 38H58.625M43.625 21.125L41.69 13.525C41.5565 13.0138 41.2564 12.5617 40.8371 12.2402C40.4178 11.9187 39.9033 11.7462 39.375 11.75H34.08C34.08 12.6995 33.7028 13.6101 33.0314 14.2814C32.3601 14.9528 31.4495 15.33 30.5 15.33C29.5505 15.33 28.6399 14.9528 27.9686 14.2814C27.2972 13.6101 26.92 12.6995 26.92 11.75H21.625C21.0967 11.7462 20.5822 11.9187 20.1629 12.2402C19.7436 12.5617 19.4435 13.0138 19.31 13.525L17.375 21.125H23V30.5H38V21.125H43.625Z" stroke="white" stroke-width="1.5" stroke-linecap="round" stroke-linejoin="round"/>
<path d="M30.5 58.625V47.375M6.125 2.375H54.875C54.875 2.375 58.625 2.375 58.625 6.125V43.625C58.625 43.625 58.625 47.375 54.875 47.375H6.125C6.125 47.375 2.375 47.375 2.375 43.625V6.125C2.375 6.125 2.375 2.375 6.125 2.375Z" stroke="white" stroke-width="1.5" stroke-linecap="round" stroke-linejoin="round"/>
</svg>
