<svg width="63" height="61" viewBox="0 0 63 61" fill="none" xmlns="http://www.w3.org/2000/svg">
<path d="M22.6665 16.9625C21.4017 16.9625 20.3849 17.33 19.6706 18.1175C18.9614 18.8825 18.634 19.9475 18.634 21.2525C18.6323 22.2259 18.8489 23.1109 19.2838 23.9075V23.9125C19.7153 24.685 20.4568 25.5275 21.4835 26.4375V26.44C22.2771 27.1375 22.793 27.7125 23.0608 28.17V28.175C23.322 28.6 23.4535 29.1125 23.4551 29.7125C23.4551 30.23 23.3485 30.525 23.2121 30.68C23.0955 30.815 22.8996 30.9125 22.5549 30.9125C22.2077 30.9125 22.0093 30.8125 21.8853 30.6625C21.7538 30.505 21.6546 30.225 21.6546 29.7575V28.3025H18.5894V29.5775C18.5894 30.91 18.9093 31.9925 19.5987 32.775L19.6012 32.7775C20.303 33.5525 21.3174 33.9125 22.5772 33.9125C23.8519 33.9125 24.8811 33.545 25.5954 32.7575C26.3195 31.975 26.6543 30.8825 26.6543 29.5325C26.6576 28.4909 26.4493 27.57 26.0294 26.77C25.6127 25.975 24.8662 25.1225 23.8246 24.21C23.031 23.515 22.5078 22.9425 22.2226 22.495C21.9658 22.0741 21.831 21.5892 21.8332 21.095C21.8332 20.635 21.9274 20.3575 22.0564 20.2025C22.1705 20.06 22.359 19.9625 22.6888 19.9625C23.0062 19.9625 23.1947 20.06 23.3162 20.2075L23.3237 20.2175C23.4427 20.355 23.5444 20.6325 23.5444 21.14V22.325H26.6097V21.2975C26.6097 19.9675 26.2922 18.89 25.6003 18.1225C24.9158 17.33 23.9139 16.9625 22.6665 16.9625Z" fill="white"/>
<path fill-rule="evenodd" clip-rule="evenodd" d="M40.2396 16.9625C38.9624 16.9625 37.9282 17.33 37.1991 18.1175C36.4774 18.8975 36.1401 19.975 36.1401 21.2975V29.5775C36.1401 30.9 36.4774 31.9775 37.2016 32.7575C37.9282 33.545 38.9624 33.9125 40.2396 33.9125C41.5168 33.9125 42.5509 33.545 43.2801 32.7575C44.0017 31.9775 44.339 30.9 44.339 29.5775V21.2975C44.339 19.9725 44.0017 18.8975 43.2801 18.1175C42.5509 17.33 41.5193 16.9625 40.2396 16.9625ZM39.3393 21.14C39.3393 20.665 39.4385 20.3775 39.5725 20.215C39.6965 20.065 39.8949 19.9625 40.2421 19.9625C40.5868 19.9625 40.7852 20.0625 40.9067 20.2125C41.0406 20.3775 41.1398 20.6625 41.1398 21.14V29.735C41.1398 30.21 41.0406 30.4975 40.9067 30.66C40.7827 30.81 40.5843 30.9125 40.2396 30.9125C39.8924 30.9125 39.694 30.8125 39.5725 30.6625C39.4385 30.4975 39.3393 30.2125 39.3393 29.735V21.14Z" fill="white"/>
<path d="M35.2051 17.1875H27.7651V33.6875H35.2051V30.6875H30.9643V26.6H34.3347V23.6H30.9619V20.1875H35.2027L35.2051 17.1875Z" fill="white"/>
<path fill-rule="evenodd" clip-rule="evenodd" d="M12.372 10.9301C10.8921 10.9301 9.47279 11.5227 8.42634 12.5776C7.37988 13.6325 6.79199 15.0632 6.79199 16.5551V35.0701C6.79199 36.5619 7.37988 37.9926 8.42634 39.0475C9.47279 40.1024 10.8921 40.6951 12.372 40.6951H29.732V46.3201H24.152C23.6587 46.3201 23.1856 46.5176 22.8368 46.8692C22.488 47.2209 22.292 47.6978 22.292 48.1951C22.292 48.6923 22.488 49.1692 22.8368 49.5209C23.1856 49.8725 23.6587 50.0701 24.152 50.0701H39.032C39.5253 50.0701 39.9984 49.8725 40.3472 49.5209C40.696 49.1692 40.892 48.6923 40.892 48.1951C40.892 47.6978 40.696 47.2209 40.3472 46.8692C39.9984 46.5176 39.5253 46.3201 39.032 46.3201H33.452V40.6951H50.812C52.2919 40.6951 53.7112 40.1024 54.7576 39.0475C55.8041 37.9926 56.392 36.5619 56.392 35.0701V16.5551C56.392 15.0632 55.8041 13.6325 54.7576 12.5776C53.7112 11.5227 52.2919 10.9301 50.812 10.9301H12.372ZM10.512 16.5551C10.512 16.0578 10.708 15.5809 11.0568 15.2292C11.4056 14.8776 11.8787 14.6801 12.372 14.6801H50.812C51.3053 14.6801 51.7784 14.8776 52.1272 15.2292C52.476 15.5809 52.672 16.0578 52.672 16.5551V35.0701C52.672 35.5673 52.476 36.0442 52.1272 36.3959C51.7784 36.7475 51.3053 36.9451 50.812 36.9451H12.372C11.8787 36.9451 11.4056 36.7475 11.0568 36.3959C10.708 36.0442 10.512 35.5673 10.512 35.0701V16.5551Z" fill="white"/>
</svg>
