<svg width="61" height="61" viewBox="0 0 61 61" fill="none" xmlns="http://www.w3.org/2000/svg">
<path d="M36.125 58.625H6.125C5.13044 58.625 4.17661 58.2299 3.47335 57.5266C2.77009 56.8234 2.375 55.8696 2.375 54.875V6.125C2.375 5.13044 2.77009 4.17661 3.47335 3.47335C4.17661 2.77009 5.13044 2.375 6.125 2.375H32.6975C33.19 2.37478 33.6778 2.47159 34.1329 2.6599C34.588 2.84821 35.0016 3.12433 35.35 3.4725L50.0275 18.1525C50.73 18.8555 51.1248 19.8086 51.125 20.8025V32.375" stroke="white" stroke-width="1.5" stroke-linecap="round" stroke-linejoin="round"/>
<path d="M51.125 21.125H36.125C35.1304 21.125 34.1766 20.7299 33.4733 20.0267C32.7701 19.3234 32.375 18.3696 32.375 17.375V2.375M58.625 58.625V39.875M43.625 58.625V43.625C43.625 42.6304 44.0201 41.6766 44.7234 40.9734C45.4266 40.2701 46.3804 39.875 47.375 39.875C48.3696 39.875 49.3234 40.2701 50.0266 40.9734C50.7299 41.6766 51.125 42.6304 51.125 43.625V58.625M43.625 51.125H51.125" stroke="white" stroke-width="1.5" stroke-linecap="round" stroke-linejoin="round"/>
</svg>
